<?xml version="1.0" encoding="UTF-8"?>
<svg width="375px" height="651px" viewBox="0 0 375 651" version="1.1" xmlns="http://www.w3.org/2000/svg" xmlns:xlink="http://www.w3.org/1999/xlink">
    <!-- Generator: Sketch 52.3 (67297) - http://www.bohemiancoding.com/sketch -->
    <title>bg_avatar</title>
    <desc>Created with Sketch.</desc>
    <g id="Backgrounds" stroke="none" stroke-width="1" fill="none" fill-rule="evenodd" opacity="0.25">
        <g id="bg_avatar" fill-rule="nonzero">
            <g id="background">
                <path d="M387.920659,0 C359.424269,42.0138389 359.863445,53.0460321 321.879761,76.8919309 C298.538333,91.5455207 278.387789,88.6926201 250.715544,95.3260351 C228.86495,100.563921 179.038919,111.704949 156.134463,129.418235 C122.322834,155.566643 115.884233,207.556022 120.179878,246.446334 C122.441636,266.922997 134.379451,300.482341 158.833166,305.817784 C189.200057,312.443396 229.406088,300.572862 255.241493,284.895813 C262.799213,280.309752 293.529921,254.398517 311.239565,250.564666 C319.849175,248.700825 328.924113,254.375102 335.67547,258.14071 C369.544641,277.031436 388.733759,293.069669 389.122425,333.402175 C389.312726,353.149936 389.675853,372.919509 388.764004,392.647124 C387.570881,418.46003 384.7956,444.17547 382.811398,469.939643 L387.920659,0 Z" id="Path-6" fill="#FFE66D"></path>
                <path d="M167.241908,709.921327 C155.662265,705.061955 143.865271,700.691104 132.50298,695.343211 C63.9614105,663.082729 59.4169593,633.532975 22.3429104,556.876872 C18.7136239,549.372783 0.125481733,509.280562 0.00246380974,490.280513 C-0.0833414798,477.027934 2.06522679,460.727423 7.52010942,448.059354 C28.3754642,399.626218 114.030994,377.668533 160.393928,397.850496 C178.238066,405.618118 189.351582,448.143423 193.548838,457.029016 C201.599558,474.072396 212.399223,496.239601 229.073335,507.472901 C262.653177,530.095541 301.260371,481.704914 339.668044,504.70409 C345.257883,508.051382 350.670819,511.805776 355.456709,516.226853 C361.988933,522.261147 368.684582,528.413965 373.457205,535.917612 C381.96753,549.297774 387.659996,566.050805 389.664412,581.91852 C394.955327,623.803411 382.016319,651.82053 345.859235,673.157303 C283.300006,710.074332 239.837588,718.212117 165.793111,715.510463 C138.48847,714.514201 125.822477,691.265492 102.828402,680.150162" id="Path-7" fill="#FF6B6B"></path>
            </g>
        </g>
    </g>
</svg>