<?xml version="1.0" encoding="UTF-8"?>
<svg width="375px" height="651px" viewBox="0 0 375 651" version="1.1" xmlns="http://www.w3.org/2000/svg" xmlns:xlink="http://www.w3.org/1999/xlink">
    <!-- Generator: Sketch 52.3 (67297) - http://www.bohemiancoding.com/sketch -->
    <title>bg_bot</title>
    <desc>Created with Sketch.</desc>
    <g id="Backgrounds" stroke="none" stroke-width="1" fill="none" fill-rule="evenodd" opacity="0.25">
        <g id="bg_bot" fill-rule="nonzero">
            <g id="background" transform="translate(-231.000000, -206.000000)">
                <path d="M194.456873,620.765609 C259.854098,622.145551 273.027459,567.775465 313.99962,521.395239 C327.380576,506.248082 343.643709,493.878465 359.261945,481.050485 C407.857028,441.137093 466.333154,477.687323 488.241112,525.013272 C508.017056,567.733608 492.829429,624.669836 470.756416,662.734786 C455.963428,688.24532 432.772944,708.052865 430.943291,739.378005 C430.602625,745.210475 431.13064,751.186785 432.685854,756.818399 C433.570549,760.021985 435.425934,763.200613 438.075984,765.206327 C457.824207,780.152949 510.727755,754.68055 521.083986,750.099196 C569.367759,728.739583 616.09629,704.005047 664.092259,682.006347 C677.485476,675.867637 711.586064,663.508322 723.103107,674.179583 C732.370377,682.766288 731.096784,720.038618 730.900336,722.395404 C726.411577,776.247121 669.006394,784.598536 631.367524,811.354701 C619.167725,820.027114 603.988416,837.970757 607.266997,855.376558 C608.616529,862.541144 612.618256,869.281345 617.471326,874.721956 C636.257755,895.782781 658.12184,913.90309 677.648805,934.279201 C704.823766,962.635888 718.642514,986.743959 727.695793,1025.52746 C763.134397,1177.3435 641.88019,1323.8576 507.483138,1375.32475 C481.346766,1385.33363 415.970304,1389.10643 399.783909,1389.85595 C353.604075,1391.99432 300.970405,1370.71486 262.918908,1349.61456 C153.094695,1288.71489 41.171142,1125.25539 37.1979828,996.834244 C35.404037,938.850013 46.0515793,900.224396 58.9947827,842.46978 C80.512369,746.454915 194.456873,620.765609 194.456873,620.765609 Z" id="Path-17" fill="#118AB2"></path>
                <path d="M456.851555,265.287252 C459.504747,288.656231 450.475893,317.261219 475.001553,332.754229 C508.156891,353.69866 553.058873,356.801898 591.110944,354.361368 C600.797138,353.740129 613.946342,351.091932 621.471611,344.116422 C637.14538,329.587701 635.698963,304.233091 645.402836,286.325228 C649.287956,279.155492 687.000154,236.133187 676.828049,215.032206 C640.001145,138.638594 500.578517,116.352405 439.665974,176.228945 C423.482502,192.137168 454.396819,243.666248 456.851555,265.287252 Z" id="Path-18" fill="#FF6B6B"></path>
                <path d="M382.648147,-32.0115922 C354.151756,7.40957049 354.590932,17.7609665 316.607248,40.1353336 C293.26582,53.8846496 273.115276,51.2078016 245.443032,57.4318683 C223.592438,62.3465239 173.766407,72.8000386 150.861951,89.4202366 C117.050321,113.955025 110.61172,162.736136 114.907365,199.226526 C117.169123,218.439573 129.106938,249.927967 153.560653,254.93416 C183.927544,261.150905 224.133576,250.012903 249.96898,235.303286 C257.5267,231.00023 288.257409,206.687979 305.967052,203.090715 C314.576662,201.341892 323.6516,206.666009 330.402958,210.199241 C364.272128,227.924219 383.461246,242.972732 383.849913,280.816317 C384.040213,299.345443 384.40334,317.895034 383.491491,336.405257 C382.298368,360.625247 379.523087,384.753786 377.538885,408.928051 L382.648147,-32.0115922 Z" id="Path-6" fill="#FFE66D" transform="translate(248.905749, 188.458229) rotate(-105.000000) translate(-248.905749, -188.458229) "></path>
            </g>
        </g>
    </g>
</svg>