<?xml version="1.0" encoding="UTF-8"?>
<svg width="375px" height="651px" viewBox="0 0 375 651" version="1.1" xmlns="http://www.w3.org/2000/svg" xmlns:xlink="http://www.w3.org/1999/xlink">
    <!-- Generator: Sketch 52.3 (67297) - http://www.bohemiancoding.com/sketch -->
    <title>bg_how_many_times?</title>
    <desc>Created with Sketch.</desc>
    <g id="Backgrounds" stroke="none" stroke-width="1" fill="none" fill-rule="evenodd" opacity="0.25">
        <g id="bg_how_many_times?" fill-rule="nonzero">
            <g id="bg" transform="translate(-63.000000, -69.000000)">
                <path d="M238.130162,8.59608963 C317.946419,53.6851746 239.210199,137.798086 244.111037,200.744549 C245.32983,216.398761 293.455933,239.889498 307.693565,255.275715 C364.35046,316.503263 366.707471,410.721585 275.107519,438.384248 C266.582592,440.958728 257.878977,443.370514 248.999801,444.050641 C236.090343,445.03948 223.047136,444.647329 210.164142,443.358781 C168.718048,439.213369 178.327693,410.728985 175.588283,375.659398 C173.414911,347.836158 171.818059,314.249707 152.465285,291.812798 C145.14412,283.324903 121.77974,285.885747 115.413595,289.136842 C102.355704,295.805312 62.3872813,340.651427 37.2505412,323.426808 C13.2152109,306.956916 2.34630628,268.940722 0.919301497,240.58655 C-0.358399085,215.19901 -0.242338748,189.722203 0.884994377,164.327541 C1.17552585,157.782938 3.1427901,151.378107 5.15623077,145.144144 C8.48778456,134.829072 11.6817801,124.324134 16.87783,114.810932 C40.0169341,72.4466377 109.321491,92.112453 144.180115,80.0692555 C150.905182,77.7458333 141.099844,59.688215 147.153399,53.4640842 C154.29414,46.1221328 180.413097,-24.008918 238.130162,8.59608963 Z" id="Path-13" fill="#4ECDC4"></path>
                <path d="M117.2672,696.971226 C78.5961096,706.452612 36.9925692,689.98171 22.4087255,650.649667 C14.8581602,630.286094 1.7160764,595.612367 32.0996222,585.930345 C66.9548577,574.823374 124.11432,577.796034 150.234796,607.975718 C170.514052,631.406437 137.77897,686.767432 116.736545,695.595644 C111.318608,697.868704 105.103347,697.254586 99.2867484,698.084056" id="Path-14" fill="#8B54B3"></path>
            </g>
        </g>
    </g>
</svg>