<?xml version="1.0" encoding="UTF-8"?>
<svg width="375px" height="667px" viewBox="0 0 375 667" version="1.1" xmlns="http://www.w3.org/2000/svg" xmlns:xlink="http://www.w3.org/1999/xlink">
    <!-- Generator: Sketch 52.3 (67297) - http://www.bohemiancoding.com/sketch -->
    <title>bg_splash</title>
    <desc>Created with Sketch.</desc>
    <g id="Backgrounds" stroke="none" stroke-width="1" fill="none" fill-rule="evenodd" opacity="0.25">
        <g id="bg_splash" fill-rule="nonzero">
            <g id="Group" transform="translate(-313.000000, -133.000000)">
                <path d="M462.210129,827.66698 C421.479888,818.080588 395.765817,741.181009 384.275305,716.492137 C368.786389,683.212165 353.905233,608.911164 372.061352,577.852716 C402.773291,525.315872 501.464901,512.815093 553.26222,536.031217 C637.180622,573.644361 703.918073,660.308853 710.679033,753.085948 C712.984053,784.71653 717.987366,846.289407 678.063645,861.771874 C659.573423,868.942404 609.650721,866.598282 600.349845,866.192345 C556.819994,864.292482 502.317616,861.321578 463.54588,838.131964 C369.639911,781.966227 531.222417,866.159607 428.691428,814.136495" id="Path-9" fill="#8B54B3"></path>
                <path d="M437.220903,222.807293 C452.850024,231.653197 476.228856,243.383185 489.276753,259.18969 C495.082349,266.222715 498.13897,282.424508 498.6174,288.874113 C502.424678,340.199149 472.604725,397.541814 414.109528,393.322153 C393.083642,391.805411 363.337143,388.410495 352.857177,366.193915 C342.206969,343.616437 330.470943,313.194334 328.496538,287.807434 C325.375528,247.67748 321.270731,227.002931 343.295506,194.247207 C365.320281,161.491482 401.482995,202.580044 437.220903,222.807293 Z" id="Path-10" fill="#4ECDC4"></path>
                <path d="M167.241908,626.551035 C155.662265,621.691663 143.865271,617.320813 132.50298,611.97292 C63.9614105,579.712437 59.4169593,550.162683 22.3429104,473.50658 C18.7136239,466.002491 0.125481733,425.91027 0.00246380974,406.910221 C-0.0833414798,393.657642 2.06522679,377.357132 7.52010942,364.689063 C28.3754642,316.255926 114.030994,294.298241 160.393928,314.480205 C178.238066,322.247826 189.351582,364.773131 193.548838,373.658725 C201.599558,390.702104 212.399223,412.869309 229.073335,424.102609 C262.653177,446.72525 301.260371,398.334622 339.668044,421.333798 C345.257883,424.68109 350.670819,428.435484 355.456709,432.856562 C361.988933,438.890855 368.684582,445.043673 373.457205,452.54732 C381.96753,465.927482 387.659996,482.680514 389.664412,498.548228 C394.955327,540.43312 382.016319,568.450238 345.859235,589.787011 C283.300006,626.70404 239.837588,634.841825 165.793111,632.140171 C138.48847,631.143909 125.822477,607.8952 102.828402,596.779871" id="Path-7" fill="#FF6B6B"></path>
                <path d="M742.920659,238 C714.424269,277.421163 714.863445,287.772559 676.879761,310.146926 C653.538333,323.896242 633.387789,321.219394 605.715544,327.443461 C583.86495,332.358116 534.038919,342.811631 511.134463,359.431829 C477.322834,383.966617 470.884233,432.747729 475.179878,469.238118 C477.441636,488.451165 489.379451,519.93956 513.833166,524.945752 C544.200057,531.162497 584.406088,520.024495 610.241493,505.314878 C617.799213,501.011823 648.529921,476.699571 666.239565,473.102307 C674.849175,471.353484 683.924113,476.677601 690.67547,480.210834 C724.544641,497.935811 743.733759,512.984324 744.122425,550.82791 C744.312726,569.357035 744.675853,587.906626 743.764004,606.416849 C742.570881,630.63684 739.7956,654.765378 737.811398,678.939643 L742.920659,238 Z" id="Path-6" fill="#FFE66D"></path>
                <path d="M391,28.3505269 C397.801842,63.5743502 409.283574,65.6380153 451.704597,88.5265894 C473.440444,100.254325 482.579163,89.6101896 496.409011,109.254754 C507.558333,125.091773 498.954238,141.77704 496.418621,158.264323 C496.015687,160.884312 493.383092,182.040519 499.714755,186.305484 C524.996381,203.335012 560.80086,161.123648 587.586029,197.40471 C608.467203,225.68869 581.603862,266.200561 601.769974,293.521122 C604.518449,297.244689 613.515431,296.069707 619.874686,294.385997 C633.583296,290.756433 658.93514,274.935614 674.304136,284.70901 C715.554343,310.940692 675.384668,369.543825 704.267241,403.773432 C714.299128,415.662523 752.647173,402.305494 755.141095,401.986025 C774.773431,399.471139 774.43822,406.92878 789.188331,419.754396 C791.335823,421.621698 793.777429,423.281188 796.462888,424.222915 C797.190867,424.4782 798.170997,423.721899 798.423271,422.992871 C801.632419,413.718979 804.344809,404.265076 806.66841,394.730687 C809.621509,382.613294 814.109109,370.56018 814.240869,358.088827 C814.471714,336.238898 808.432142,314.698384 807.744699,292.858052 C806.143324,241.9818 817.379917,140.329604 799.009464,75.5534683 C797.05567,68.6641889 794.245443,61.9156758 790.418375,55.8631534 C784.543323,46.5717378 777.358288,38.1448605 770.122647,29.8688625 C764.966975,23.9718947 759.316904,18.4810996 753.324858,13.4362425 C750.810086,11.3189912 747.837964,9.71225589 744.772208,8.52567589 C740.06633,6.70429785 735.164365,5.29557049 730.184654,4.47998405 C717.912451,2.4700196 705.57326,0.270917904 693.139186,0.0691228693 C666.792147,-0.358468381 640.445927,1.2850518 614.128073,2.59647906 C604.560383,3.07324022 595.000188,3.99086302 585.529549,5.43134626 C578.038715,6.57070128 570.724356,8.66424498 563.331097,10.3226934 C551.203727,13.0430929 538.947892,15.2581606 526.967919,18.5678326 C513.832081,22.196832 500.991343,26.8224563 488.058165,31.1181261 C480.351569,33.6778214 472.594973,36.1235241 465.052497,39.132632 C446.225112,46.6439101 427.831258,55.2162153 408.979785,62.6668347 C406.319775,63.7181435 403.406148,63.9545371 400.619329,64.5983883" id="Path-11" fill="#118AB2"></path>
            </g>
        </g>
    </g>
</svg>