<?xml version="1.0" encoding="UTF-8"?>
<svg width="375px" height="651px" viewBox="0 0 375 651" version="1.1" xmlns="http://www.w3.org/2000/svg" xmlns:xlink="http://www.w3.org/1999/xlink">
    <!-- Generator: Sketch 52.3 (67297) - http://www.bohemiancoding.com/sketch -->
    <title>bg_when?</title>
    <desc>Created with Sketch.</desc>
    <g id="Backgrounds" stroke="none" stroke-width="1" fill="none" fill-rule="evenodd" opacity="0.25">
        <g id="bg_when?" fill-rule="nonzero">
            <path d="M315.851555,135.287252 C318.504747,158.656231 309.475893,187.261219 334.001553,202.754229 C367.156891,223.69866 412.058873,226.801898 450.110944,224.361368 C459.797138,223.740129 472.946342,221.091932 480.471611,214.116422 C496.14538,199.587701 494.698963,174.233091 504.402836,156.325228 C508.287956,149.155492 546.000154,106.133187 535.828049,85.0322064 C499.001145,8.63859415 359.578517,-13.6475947 298.665974,46.2289452 C282.482502,62.1371677 313.396819,113.666248 315.851555,135.287252 Z" id="Path-18" fill="#FF6B6B"></path>
            <path d="M-161.362872,-207.738859 C-159.782157,-208.846387 -129.944388,-240.521436 -114.342515,-235.059291 C-86.7994832,-225.4166 -95.7083842,-182.008692 -71.4831668,-181.235253 C-48.4306914,-180.499256 -28.6622785,-219.40074 -6.37731821,-211.034993 C0.0741381235,-208.613124 17.5875026,-198.03335 20.9238944,-189.317027 C24.4953426,-179.986619 28.1553884,-155.024128 42.5842018,-154.020528 C63.2594592,-152.582454 78.6791695,-202.887885 107.37293,-198.071481 C151.370675,-190.68622 129.2984,-142.032637 153.25934,-122.760111 C176.506464,-104.061728 205.384808,-131.763243 230.550312,-120.309632 C233.839109,-118.812798 236.631348,-116.24671 238.997255,-113.515561 C248.277943,-102.802147 258.393554,-92.4923823 265.347106,-80.1410054 C290.425504,-35.5950308 291.241531,27.6356578 285.537126,76.286006 C284.170693,87.9397127 280.076332,145.695535 265.760324,162.936845 C262.170003,167.260805 258.119878,171.442105 253.23886,174.228266 C228.606366,188.288873 196.937477,188.332716 169.34601,187.989384 C86.7583927,186.96171 -1.38715483,189.702908 -75.6633947,146.927053 C-107.896178,128.36412 -181.02723,101.790631 -208.306351,56.7398369 C-248.046956,-8.89079228 -239.763517,-55.5293712 -231.408116,-130.342179 C-223.739758,-199.003317 -177.823143,-196.205965 -161.362872,-207.738859 Z" id="Path-8" fill="#118AB2" transform="translate(25.043892, -23.809063) rotate(-210.000000) translate(-25.043892, 23.809063) "></path>
        </g>
    </g>
</svg>