<?xml version="1.0" encoding="UTF-8"?>
<svg width="375px" height="651px" viewBox="0 0 375 651" version="1.1" xmlns="http://www.w3.org/2000/svg" xmlns:xlink="http://www.w3.org/1999/xlink">
    <!-- Generator: Sketch 52.3 (67297) - http://www.bohemiancoding.com/sketch -->
    <title>bg_what_is_your_goal?</title>
    <desc>Created with Sketch.</desc>
    <g id="Backgrounds" stroke="none" stroke-width="1" fill="none" fill-rule="evenodd" opacity="0.25">
        <g id="bg_what_is_your_goal?" fill-rule="nonzero">
            <g id="bg" transform="translate(8.000000, 54.000000)">
                <path d="M149.210129,631.66698 C108.479888,622.080588 82.7658168,545.181009 71.2753054,520.492137 C55.7863886,487.212165 40.9052334,412.911164 59.0613521,381.852716 C89.7732912,329.315872 188.464901,316.815093 240.26222,340.031217 C324.180622,377.644361 390.918073,464.308853 397.679033,557.085948 C399.984053,588.71653 404.987366,650.289407 365.063645,665.771874 C346.573423,672.942404 296.650721,670.598282 287.349845,670.192345 C243.819994,668.292482 189.317616,665.321578 150.54588,642.131964 C56.6399114,585.966227 218.222417,670.159607 115.691428,618.136495" id="Path-9" fill="#8B54B3"></path>
                <path d="M111.434323,41.0728483 C127.063443,49.9187524 150.442275,61.6487412 163.490172,77.4552458 C169.295769,84.4882708 172.352389,100.690064 172.830819,107.139669 C176.638097,158.464705 146.818144,215.80737 88.3229475,211.587708 C67.2970619,210.070966 37.5505626,206.676051 27.0705964,184.459471 C16.4203882,161.881993 4.68436288,131.45989 2.70995787,106.07299 C-0.411052738,65.9430355 -4.51584938,45.2684873 17.5089257,12.5127625 C39.5337007,-20.2429623 75.6964145,20.8456003 111.434323,41.0728483 Z" id="Path-10" fill="#FF6B6B"></path>
            </g>
        </g>
    </g>
</svg>