<?xml version="1.0" encoding="UTF-8"?>
<svg width="375px" height="651px" viewBox="0 0 375 651" version="1.1" xmlns="http://www.w3.org/2000/svg" xmlns:xlink="http://www.w3.org/1999/xlink">
    <!-- Generator: Sketch 52.3 (67297) - http://www.bohemiancoding.com/sketch -->
    <title>bg_which_technique?</title>
    <desc>Created with Sketch.</desc>
    <g id="Backgrounds" stroke="none" stroke-width="1" fill="none" fill-rule="evenodd" opacity="0.25">
        <g id="bg_which_technique?" fill="#118AB2" fill-rule="nonzero">
            <path d="M-112,-47.2092833 C-106.053875,-16.4083099 -96.0166208,-14.6037673 -58.9324435,5.41082223 C-39.9311099,15.6659747 -31.9421024,6.35836109 -19.8521407,23.5362722 C-10.1054776,37.384729 -17.6271203,51.9749248 -19.84374,66.3919953 C-20.1959824,68.6830079 -22.4973795,87.1827538 -16.9622817,90.9121914 C5.13874806,105.803421 36.4387865,68.892292 59.8542034,100.617752 C78.108388,125.350278 54.624633,160.77531 72.2537148,184.665388 C74.6564128,187.921408 82.5215149,186.893962 88.0807334,185.421666 C100.06471,182.247845 122.227124,168.413553 135.662598,176.959761 C171.723256,199.897684 136.607192,251.142364 161.856146,281.073959 C170.625955,291.470206 204.149562,279.790341 206.329732,279.510986 C223.492191,277.311879 223.199151,283.833108 236.0936,295.048286 C237.970923,296.681122 240.10536,298.13224 242.45297,298.95572 C243.089364,299.17895 243.946188,298.517613 244.166724,297.880125 C246.972139,289.770701 249.343292,281.50387 251.37457,273.166658 C253.956149,262.570775 257.879179,252.0311 257.994363,241.125703 C258.196166,222.019342 252.916413,203.183545 252.315454,184.085575 C250.915543,139.597558 260.738498,50.7092348 244.679169,-5.93333978 C242.971176,-11.9575726 240.514494,-17.8587143 237.168896,-23.1512568 C232.032965,-31.2760035 225.751855,-38.644767 219.426506,-45.8815962 C214.919451,-51.0381162 209.980196,-55.8394642 204.74199,-60.2508681 C202.543593,-62.1022685 199.945383,-63.5072554 197.26532,-64.5448435 C193.151472,-66.1375217 188.866207,-67.3693634 184.512977,-68.0825414 C173.784698,-69.8401263 162.99786,-71.7630997 152.128074,-71.9395565 C129.095668,-72.3134576 106.063976,-70.8763047 83.0570831,-69.7295457 C74.6930712,-69.3126486 66.3356128,-68.5102464 58.0564423,-67.2506362 C51.5080047,-66.2543433 45.1138407,-64.4236737 38.6507029,-62.973467 C28.0490367,-60.5946522 17.3350663,-58.6577176 6.86225372,-55.7636218 C-4.62100844,-52.5902946 -15.8462967,-48.545483 -27.152395,-44.7891954 C-33.8894509,-42.5509061 -40.6702151,-40.412296 -47.2637976,-37.7810242 C-63.7225735,-31.2128935 -79.8023587,-23.7169626 -96.2821912,-17.201874 C-98.6075541,-16.2825719 -101.154628,-16.0758609 -103.590846,-15.5128544" id="bg" transform="translate(73.000000, 113.500000) rotate(-90.000000) translate(-73.000000, -113.500000) "></path>
        </g>
    </g>
</svg>