<?xml version="1.0" encoding="UTF-8"?>
<svg width="375px" height="651px" viewBox="0 0 375 651" version="1.1" xmlns="http://www.w3.org/2000/svg" xmlns:xlink="http://www.w3.org/1999/xlink">
    <!-- Generator: Sketch 52.3 (67297) - http://www.bohemiancoding.com/sketch -->
    <title>bg_what_is_your_name?</title>
    <desc>Created with Sketch.</desc>
    <g id="Backgrounds" stroke="none" stroke-width="1" fill="none" fill-rule="evenodd" opacity="0.25">
        <g id="bg_what_is_your_name?" fill-rule="nonzero">
            <path d="M-24.9064403,411.554931 C-6.5697364,417.457199 21.5482842,420.507759 38.0154265,408.968487 C39.5968006,407.860347 69.4470243,376.16778 85.0554103,381.632946 C112.609939,391.28097 103.697319,434.712883 127.932649,435.48675 C150.994747,436.223154 170.771411,397.300157 193.065674,405.670531 C199.519823,408.093739 217.040498,418.679363 220.378282,427.400507 C223.951221,436.736075 227.612795,461.71237 242.047631,462.716526 C262.731519,464.155395 278.157665,413.822144 306.863403,418.641211 C350.879513,426.030556 328.798025,474.711046 352.768966,493.99423 C376.025794,512.702954 404.916193,484.986119 430.092201,496.446064 C433.382371,497.943726 436.175776,500.511233 438.542671,503.243893 C447.827232,513.963232 457.947066,524.278697 464.90352,536.636905 C489.992386,581.207514 490.808754,644.473171 485.101968,693.150423 C483.734964,704.810575 479.638894,762.598337 465.31691,779.849182 C461.725091,784.175533 457.673275,788.359146 452.790219,791.146847 C428.147444,805.21523 396.465336,805.259098 368.862351,804.915575 C286.240261,803.887333 198.05792,806.630047 123.750676,763.830536 C91.5044381,745.257337 18.34286,718.669153 -8.94764752,673.593445 C-48.7048415,607.926521 -40.4179449,561.26215 -32.0590559,486.407969 C-24.3874974,417.70886 -33.4994764,467.926486 -26.7907315,433.131067 L-24.9064403,411.554931 Z" id="bg" fill="#118AB2"></path>
            <path d="M164.316571,-94.8680645 C164.853066,-97.6189927 166.083036,-101.065384 168.584838,-101.97073 C182.480375,-106.999214 196.951948,-111.012016 211.602282,-111.979706 C216.721243,-112.317825 221.323365,-108.355104 225.829841,-105.751899 C232.663164,-101.804569 249.898394,-89.8382122 251.327858,-80.2475462 C251.69309,-77.79711 246.843227,-27.2744521 263.212055,-18.0881012 C292.865653,-1.44620322 292.428287,-87.6851825 319.745679,-71.3136088 C327.004549,-66.9632987 333.886821,-61.8054568 340.159437,-55.973927 C349.008346,-47.7472662 357.696833,-39.1416165 364.939102,-29.2981538 C382.436576,-5.51614061 436.357008,81.1662916 404.873907,116.447358 C395.878521,126.527903 379.556864,128.386744 368.279789,130.044737 C361.508484,131.040276 354.600247,131.244222 347.78234,130.719416 C322.927756,128.806243 311.979512,128.515 292.106553,118.389841 C275.979097,110.172993 269.668329,73.326083 265.855312,64.1263652 C256.176619,40.7744553 246.772902,35.7269911 227.698951,24.0163225 C178.413423,-19.1898778 157.285963,-58.8180068 164.316571,-94.8680645 Z" id="Path-19" fill="#4ECDC4"></path>
        </g>
    </g>
</svg>