<?xml version="1.0" encoding="UTF-8"?>
<svg width="375px" height="651px" viewBox="0 0 375 651" version="1.1" xmlns="http://www.w3.org/2000/svg" xmlns:xlink="http://www.w3.org/1999/xlink">
    <!-- Generator: Sketch 52.4 (67378) - http://www.bohemiancoding.com/sketch -->
    <title>Time management_4</title>
    <desc>Created with Sketch.</desc>
    <g id="Time-management_4" stroke="none" stroke-width="1" fill="none" fill-rule="evenodd">
        <rect fill="#FAFAFA" x="0" y="0" width="375" height="651"></rect>
        <rect id="Rectangle-6" fill="#118AB2" fill-rule="nonzero" opacity="0.5" x="0" y="0" width="375" height="651"></rect>
        <g id="Group-2" transform="translate(304.900282, 488.059492) scale(-1, 1) rotate(72.000000) translate(-304.900282, -488.059492) translate(180.400282, 343.559492)" fill="#D8D8D8" fill-rule="nonzero" stroke="#979797">
            <path d="M206.983749,217.021153 L206.983749,287.716899 L230.360302,287.716899 L230.360302,217.021153 L206.983749,217.021153 Z" id="Rectangle-2"></path>
            <circle id="Oval-2" cx="219.388983" cy="196.446344" r="28.6782984"></circle>
            <path d="M75.2805334,155.362812 C44.2754667,155.362812 19.140894,180.497384 19.140894,211.502451 L19.140894,257.14209 C19.140894,262.94108 23.8419041,267.64209 29.640894,267.64209 L208.388983,267.64209 C214.187973,267.64209 218.888983,262.94108 218.888983,257.14209 L218.888983,211.502451 C218.888983,180.497384 193.75441,155.362812 162.749344,155.362812 L75.2805334,155.362812 Z" id="Rectangle"></path>
            <g id="Group-3" transform="translate(173.966737, 25.507905) scale(-1, 1) rotate(-315.000000) translate(-173.966737, -25.507905) translate(146.966737, 17.507905)">
                <path d="M9.60415771,6.90057478 L45.4073059,0.239523966 C49.630929,0.239523966 53.0548521,3.66344705 53.0548521,7.88707022 C53.0548521,12.0239974 49.7700484,15.3937175 45.6663603,15.5303113 L9.6053642,8.86705858 C9.06227292,8.76670765 8.70336095,8.24509468 8.80371188,7.70200341 C8.87892893,7.29493471 9.19718161,6.97629127 9.60415771,6.90057478 Z" id="Combined-Shape"></path>
                <circle id="Oval-2" cx="4.30174477" cy="7.88653207" r="4.30174477"></circle>
            </g>
            <path d="M57.3576413,79.6909081 C57.3569454,79.5727039 57.3565969,79.4544176 57.3565969,79.3360504 C57.3565969,46.6069705 83.9989984,20.0748089 116.864066,20.0748089 C149.729134,20.0748089 176.371535,46.6069705 176.371535,79.3360504 C176.371535,79.4544176 176.371187,79.5727039 176.370491,79.6909081 L176.371535,160.598471 L57.3565969,160.598471 L57.3565969,79.6909081 L57.3576413,79.6909081 Z" id="Combined-Shape"></path>
            <g id="Group-3" transform="translate(65.497055, 25.507905) rotate(-315.000000) translate(-65.497055, -25.507905) translate(38.497055, 17.507905)">
                <path d="M9.60415771,6.90057478 L45.4073059,0.239523966 C49.630929,0.239523966 53.0548521,3.66344705 53.0548521,7.88707022 C53.0548521,12.0239974 49.7700484,15.3937175 45.6663603,15.5303113 L9.6053642,8.86705858 C9.06227292,8.76670765 8.70336095,8.24509468 8.80371188,7.70200341 C8.87892893,7.29493471 9.19718161,6.97629127 9.60415771,6.90057478 Z" id="Combined-Shape"></path>
                <circle id="Oval-2" cx="4.30174477" cy="7.88653207" r="4.30174477"></circle>
            </g>
            <path d="M151.486952,126.684513 L108.051649,126.684513 C108.315508,134.888164 115.048912,141.457577 123.316683,141.457577 L136.221918,141.457577 C144.489689,141.457577 151.223093,134.888164 151.486952,126.684513 Z" id="Combined-Shape"></path>
            <circle id="Oval" cx="127.618428" cy="81.7331506" r="24.3765537"></circle>
            <circle id="Oval" cx="128.335386" cy="81.0161931" r="12.1882768"></circle>
            <circle id="Oval-2" cx="28.6782984" cy="196.446344" r="28.6782984"></circle>
        </g>
    </g>
</svg>