<?xml version="1.0" encoding="UTF-8"?>
<svg width="375px" height="651px" viewBox="0 0 375 651" version="1.1" xmlns="http://www.w3.org/2000/svg" xmlns:xlink="http://www.w3.org/1999/xlink">
    <!-- Generator: Sketch 52.4 (67378) - http://www.bohemiancoding.com/sketch -->
    <title>Time management_5</title>
    <desc>Created with Sketch.</desc>
    <g id="Time-management_5" stroke="none" stroke-width="1" fill="none" fill-rule="evenodd">
        <rect fill="#FAFAFA" x="0" y="0" width="375" height="651"></rect>
        <rect id="Rectangle-6" fill="#118AB2" fill-rule="nonzero" opacity="0.5" x="0" y="0" width="375" height="651"></rect>
        <g id="Group-2" transform="translate(26.683779, 533.341899) rotate(-310.000000) translate(-26.683779, -533.341899) translate(-89.816221, 397.841899)" fill="#D8D8D8" fill-rule="nonzero" stroke="#979797">
            <path d="M194.5,204.5 L194.5,270.5 L216.5,270.5 L216.5,204.5 L194.5,204.5 Z" id="Rectangle-2"></path>
            <circle id="Oval-2" cx="206" cy="185" r="27"></circle>
            <path d="M71.5,146.5 C42.2289083,146.5 18.5,170.228908 18.5,199.5 L18.5,242 C18.5,247.79899 23.2010101,252.5 29,252.5 L196,252.5 C201.79899,252.5 206.5,247.79899 206.5,242 L206.5,199.5 C206.5,170.228908 182.771092,146.5 153.5,146.5 L71.5,146.5 Z" id="Rectangle"></path>
            <g id="Group-3" transform="translate(164.000000, 23.500000) scale(-1, 1) rotate(-315.000000) translate(-164.000000, -23.500000) translate(139.000000, 16.000000)">
                <path d="M9.30709288,6.51431759 L42.7927928,0.227784497 C46.7732234,0.227784497 50,3.48389541 50,7.50051177 C50,11.4346812 46.9043324,14.6392458 43.0369311,14.7691449 L9.30830922,8.4802048 C8.76538162,8.37897211 8.40731714,7.85677701 8.50854983,7.31384941 C8.5842096,6.90807363 8.90141104,6.59047942 9.30709288,6.51431759 Z" id="Combined-Shape"></path>
                <ellipse id="Oval-2" cx="4.05405405" cy="7.5" rx="4.05405405" ry="4.09090909"></ellipse>
            </g>
            <path d="M54.0009829,75 C54.0003279,74.8889656 54,74.7778542 54,74.6666667 C54,43.9228156 79.072054,19 110,19 C140.927946,19 166,43.9228156 166,74.6666667 C166,74.7778542 165.999672,74.8889656 165.999017,75 L166,151 L54,151 L54,75 L54.0009829,75 Z" id="Combined-Shape"></path>
            <g id="Group-3" transform="translate(61.000000, 23.500000) rotate(-315.000000) translate(-61.000000, -23.500000) translate(36.000000, 16.000000)">
                <path d="M9.30709288,6.51431759 L42.7927928,0.227784497 C46.7732234,0.227784497 50,3.48389541 50,7.50051177 C50,11.4346812 46.9043324,14.6392458 43.0369311,14.7691449 L9.30830922,8.4802048 C8.76538162,8.37897211 8.40731714,7.85677701 8.50854983,7.31384941 C8.5842096,6.90807363 8.90141104,6.59047942 9.30709288,6.51431759 Z" id="Combined-Shape"></path>
                <ellipse id="Oval-2" cx="4.05405405" cy="7.5" rx="4.05405405" ry="4.09090909"></ellipse>
            </g>
            <path d="M142.491598,119.5 L101.508402,119.5 C101.770171,127.277281 108.115468,133.5 115.903226,133.5 L128.096774,133.5 C135.884532,133.5 142.229829,127.277281 142.491598,119.5 Z" id="Combined-Shape"></path>
            <circle id="Oval" cx="120" cy="77" r="23"></circle>
            <circle id="Oval" cx="120.5" cy="76.5" r="11.5"></circle>
        </g>
    </g>
</svg>