<?xml version="1.0" encoding="UTF-8"?>
<svg width="40px" height="40px" viewBox="0 0 40 40" version="1.1" xmlns="http://www.w3.org/2000/svg" xmlns:xlink="http://www.w3.org/1999/xlink">
    <!-- Generator: Sketch 52.3 (67297) - http://www.bohemiancoding.com/sketch -->
    <title>bot_icon</title>
    <desc>Created with Sketch.</desc>
    <g id="Assets" stroke="none" stroke-width="1" fill="none" fill-rule="evenodd">
        <g id="nav" transform="translate(-152.000000, -2.000000)" fill="#118AB2" fill-rule="nonzero">
            <g id="robot-assistant-cute-robotics-technology" transform="translate(152.000000, 2.000000)">
                <path d="M36.6666667,12 L24,12 L24,10.6666667 L34,10.6666667 C34.3681898,10.6666667 34.6666667,10.3681898 34.6666667,10 C34.6666667,4.486 30.1806667,0 24.6666667,0 L15.3333333,0 C9.81933333,0 5.33333333,4.486 5.33333333,10 C5.33333333,10.3681898 5.63181017,10.6666667 6,10.6666667 L16,10.6666667 L16,12 L3.33333333,12 C1.49533333,12 0,13.4953333 0,15.3333333 L0,28.6666667 C0,30.5046667 1.49533333,32 3.33333333,32 C4.08666667,32 4.77466667,31.7393333 5.33333333,31.316 L5.33333333,32.6666667 C5.33333333,34.5046667 6.82866667,36 8.66666667,36 L8.66666667,37.6666667 C8.66666667,38.9533333 9.71333333,40 11,40 C12.2866667,40 13.3333333,38.9533333 13.3333333,37.6666667 L13.3333333,36 L26.6666667,36 L26.6666667,37.6666667 C26.6666667,38.9533333 27.7133333,40 29,40 C30.2866667,40 31.3333333,38.9533333 31.3333333,37.6666667 L31.3333333,36 C33.1713333,36 34.6666667,34.5046667 34.6666667,32.6666667 L34.6666667,31.316 C35.2402592,31.7572044 35.9430205,31.9975488 36.6666667,32 C38.5046667,32 40,30.5046667 40,28.6666667 L40,15.3333333 C40,13.4953333 38.5046667,12 36.6666667,12 Z M15.3333333,1.33333333 L24.6666667,1.33333333 C29.2213333,1.33333333 32.9666667,4.86466667 33.308,9.33333333 L6.692,9.33333333 C7.03333333,4.86466667 10.7786667,1.33333333 15.3333333,1.33333333 Z M17.3333333,10.6666667 L22.6666667,10.6666667 L22.6666667,12 L17.3333333,12 L17.3333333,10.6666667 Z M3.33333333,30.6666667 C2.23066667,30.6666667 1.33333333,29.7693333 1.33333333,28.6666667 L1.33333333,15.3333333 C1.33333333,14.2306667 2.23066667,13.3333333 3.33333333,13.3333333 L5.33333333,13.3333333 L5.33333333,28.6666667 C5.33333333,29.7693333 4.436,30.6666667 3.33333333,30.6666667 Z M12,37.6666667 C12,38.218 11.5513333,38.6666667 11,38.6666667 C10.4486667,38.6666667 10,38.218 10,37.6666667 L10,36 L12,36 L12,37.6666667 Z M30,37.6666667 C30,38.218 29.5513333,38.6666667 29,38.6666667 C28.4486667,38.6666667 28,38.218 28,37.6666667 L28,36 L30,36 L30,37.6666667 Z M33.3333333,32.6666667 C33.3333333,33.7693333 32.436,34.6666667 31.3333333,34.6666667 L8.66666667,34.6666667 C7.564,34.6666667 6.66666667,33.7693333 6.66666667,32.6666667 L6.66666667,13.3333333 L33.3333333,13.3333333 L33.3333333,32.6666667 Z M38.6666667,28.6666667 C38.6666667,29.7693333 37.7693333,30.6666667 36.6666667,30.6666667 C35.564,30.6666667 34.6666667,29.7693333 34.6666667,28.6666667 L34.6666667,13.3333333 L36.6666667,13.3333333 C37.7693333,13.3333333 38.6666667,14.2306667 38.6666667,15.3333333 L38.6666667,28.6666667 Z" id="Shape"></path>
                <path d="M16.6666667,2.66666667 C15.564,2.66666667 14.6666667,3.69219048 14.6666667,4.95238095 L14.6666667,5.71428571 C14.6666667,6.97447619 15.564,8 16.6666667,8 C17.7693333,8 18.6666667,6.97447619 18.6666667,5.71428571 L18.6666667,4.95238095 C18.6666667,3.69219048 17.7693333,2.66666667 16.6666667,2.66666667 Z M17.3333333,5.71428571 C17.3333333,6.13409524 17.034,6.47619048 16.6666667,6.47619048 C16.2993333,6.47619048 16,6.13409524 16,5.71428571 L16,4.95238095 C16,4.53257143 16.2993333,4.19047619 16.6666667,4.19047619 C17.034,4.19047619 17.3333333,4.53257143 17.3333333,4.95238095 L17.3333333,5.71428571 Z" id="Shape"></path>
                <path d="M23.3333333,2.66666667 C22.2306667,2.66666667 21.3333333,3.69219048 21.3333333,4.95238095 L21.3333333,5.71428571 C21.3333333,6.97447619 22.2306667,8 23.3333333,8 C24.436,8 25.3333333,6.97447619 25.3333333,5.71428571 L25.3333333,4.95238095 C25.3333333,3.69219048 24.436,2.66666667 23.3333333,2.66666667 Z M24,5.71428571 C24,6.13409524 23.7006667,6.47619048 23.3333333,6.47619048 C22.966,6.47619048 22.6666667,6.13409524 22.6666667,5.71428571 L22.6666667,4.95238095 C22.6666667,4.53257143 22.966,4.19047619 23.3333333,4.19047619 C23.7006667,4.19047619 24,4.53257143 24,4.95238095 L24,5.71428571 Z" id="Shape"></path>
                <path d="M23.3333333,14.6666667 L15.3333333,14.6666667 C13.4953333,14.6666667 12,16.0969855 12,17.8550725 L12,26.1449275 C12,27.9030145 13.4953333,29.3333333 15.3333333,29.3333333 L23.3333333,29.3333333 C25.1713333,29.3333333 26.6666667,27.9030145 26.6666667,26.1449275 L26.6666667,17.8550725 C26.6666667,16.0969855 25.1713333,14.6666667 23.3333333,14.6666667 Z M25.3333333,26.1449275 C25.3333333,27.1996522 24.436,28.057971 23.3333333,28.057971 L15.3333333,28.057971 C14.2306667,28.057971 13.3333333,27.1996522 13.3333333,26.1449275 L13.3333333,17.8550725 C13.3333333,16.8003478 14.2306667,15.942029 15.3333333,15.942029 L23.3333333,15.942029 C24.436,15.942029 25.3333333,16.8003478 25.3333333,17.8550725 L25.3333333,26.1449275 Z" id="Shape"></path>
                <path d="M23.3333333,18.6666667 L15.3333333,18.6666667 C14.9651435,18.6666667 14.6666667,18.9380092 14.6666667,19.2727273 L14.6666667,24.7272727 C14.6666667,25.0619908 14.9651435,25.3333333 15.3333333,25.3333333 L23.3333333,25.3333333 C23.7015232,25.3333333 24,25.0619908 24,24.7272727 L24,19.2727273 C24,18.9380092 23.7015232,18.6666667 23.3333333,18.6666667 Z M22.6666667,24.1212121 L16,24.1212121 L16,19.8787879 L22.6666667,19.8787879 L22.6666667,24.1212121 Z" id="Shape"></path>
                <polygon id="Shape" points="14.6666667 26.6666667 16 26.6666667 16 28 14.6666667 28"></polygon>
                <polygon id="Shape" points="18.6666667 26.6666667 20 26.6666667 20 28 18.6666667 28"></polygon>
                <polygon id="Shape" points="20 26.6666667 21.3333333 26.6666667 21.3333333 28 20 28"></polygon>
                <polygon id="Shape" points="22.6666667 26.6666667 24 26.6666667 24 28 22.6666667 28"></polygon>
                <polygon id="Shape" points="14.6666667 32 18.6666667 32 18.6666667 33.3333333 14.6666667 33.3333333"></polygon>
                <polygon id="Shape" points="20 32 24 32 24 33.3333333 20 33.3333333"></polygon>
            </g>
        </g>
    </g>
</svg>