<?xml version="1.0" encoding="UTF-8"?>
<svg xmlns="http://www.w3.org/2000/svg" xmlns:xlink="http://www.w3.org/1999/xlink" width="40px" height="40px" version="1.1" viewBox="0 0 40 40">
<!--Generator: Sketch 52.3 (67297) - http://www.bohemiancoding.com/sketch-->
    <title>
        help
    </title>
    <desc>
        Created with Sketch.
    </desc>
    <g id="Assets" fill="none" fill-rule="evenodd" stroke="none" stroke-width="1">
        <g id="nav" fill="#118AB2" transform="translate(-230.000000, -1.000000)">
            <g id="life-buoy-saver-rescue-emergency" transform="translate(230.000000, 1.000000)">
                <path id="Shape" fill-rule="nonzero" d="M2.71419355,27.8051613 C2.79677419,27.8051613 2.88064516,27.7890323 2.96129032,27.7554839 L2.97483871,27.7496774 C4.83870968,31.8309677 8.1683871,35.1612903 12.2496774,37.0251613 L12.2445161,37.0380645 C12.1083871,37.3670968 12.2645161,37.7445161 12.5935484,37.8812903 C14.9819355,38.8709677 17.4903226,39.3651613 20,39.3651613 C22.5090323,39.3651613 25.0187097,38.8703226 27.4064516,37.8812903 C27.5645161,37.8154839 27.6896774,37.6903226 27.7554839,37.5322581 C27.8212903,37.3741935 27.8212903,37.196129 27.7554839,37.0380645 L27.7503226,37.0251613 C31.8316129,35.1612903 35.1612903,31.8309677 37.0251613,27.7503226 L37.0387097,27.756129 C37.1180645,27.7890323 37.2019355,27.8051613 37.2858065,27.8051613 C37.3696774,27.8051613 37.4535484,27.7890323 37.5329032,27.756129 C37.6909677,27.6903226 37.816129,27.5651613 37.8819355,27.4070968 C39.86,22.6309677 39.86,17.3696774 37.8819355,12.5935484 C37.7458065,12.263871 37.3670968,12.1096774 37.0387097,12.2445161 L37.0251613,12.2503226 C35.1612903,8.16903226 31.8316129,4.83870968 27.7503226,2.97483871 L27.7554839,2.96193548 C27.8916129,2.63290323 27.7354839,2.25548387 27.4064516,2.11870968 C22.6309677,0.140645161 17.3696774,0.14 12.5929032,2.11870968 C12.4348387,2.18451613 12.3096774,2.30967742 12.243871,2.46774194 C12.1780645,2.62580645 12.1780645,2.80387097 12.243871,2.96193548 L12.2490323,2.97483871 C8.1683871,4.83870968 4.83870968,8.16903226 2.97483871,12.2496774 L2.96129032,12.2445161 C2.80258065,12.1787097 2.62580645,12.1787097 2.46709677,12.2445161 C2.30903226,12.3103226 2.18387097,12.4354839 2.11806452,12.5935484 C0.14,17.3696774 0.14,22.6309677 2.11806452,27.4070968 C2.22064516,27.6548387 2.46129032,27.8051613 2.71419355,27.8051613 Z M16.2967742,11.7045161 C16.3793548,11.7045161 16.4632258,11.6883871 16.543871,11.6548387 C18.7729032,10.7316129 21.2277419,10.7316129 23.4567742,11.6548387 C23.7722581,11.7851613 24.1335484,11.6406452 24.2806452,11.3335484 C26.1735484,12.2729032 27.7264516,13.8258065 28.6658065,15.7193548 C28.3587097,15.8664516 28.2135484,16.2251613 28.3451613,16.5432258 C29.2683871,18.7722581 29.2683871,21.2270968 28.3451613,23.456129 C28.2135484,23.7741935 28.3593548,24.1335484 28.6658065,24.28 C27.7264516,26.1729032 26.1735484,27.7258065 24.2806452,28.6658065 C24.1341935,28.3587097 23.7741935,28.2135484 23.456129,28.3445161 C21.2270968,29.2677419 18.7722581,29.2677419 16.5432258,28.3445161 C16.2264516,28.2129032 15.8658065,28.3580645 15.7187097,28.6658065 C13.8258065,27.7264516 12.2729032,26.1735484 11.3335484,24.28 C11.6406452,24.1329032 11.7858065,23.7741935 11.6541935,23.456129 C10.7309677,21.2270968 10.7309677,18.7722581 11.6541935,16.5432258 C11.7858065,16.2251613 11.64,15.8658065 11.3335484,15.7193548 C12.2729032,13.8270968 13.8251613,12.2741935 15.7174194,11.3341935 C15.8270968,11.563871 16.0548387,11.7045161 16.2967742,11.7045161 Z M4.16322581,27.2580645 L10.1329032,24.7851613 C11.2051613,26.9864516 13.0129032,28.7941935 15.2141935,29.8664516 L12.7412903,35.836129 C8.97354839,34.103871 5.89612903,31.0258065 4.16322581,27.2580645 Z M13.6877419,36.9258065 L16.6535484,29.7651613 C18.8335484,30.5154839 21.1670968,30.5154839 23.3470968,29.7651613 L26.3129032,36.9258065 C22.2174194,38.4574194 17.7819355,38.4567742 13.6877419,36.9258065 Z M27.2587097,35.8367742 L24.7858065,29.8670968 C26.9870968,28.7948387 28.7948387,26.9870968 29.8670968,24.7858065 L35.8367742,27.2587097 C34.103871,31.0258065 31.0264516,34.103871 27.2587097,35.8367742 Z M36.9258065,26.3129032 L32.856129,24.6270968 L29.7832258,23.3541935 C29.7832258,23.3541935 29.7832258,23.3541935 29.7832258,23.3541935 L29.7658065,23.3470968 C30.516129,21.1677419 30.5154839,18.8329032 29.7658065,16.6535484 L29.7832258,16.6464516 C29.7832258,16.6464516 29.7832258,16.6464516 29.7832258,16.6464516 L32.856129,15.3735484 L36.9258065,13.6877419 C38.4574194,17.7819355 38.4574194,22.2180645 36.9258065,26.3129032 Z M35.8367742,12.7419355 L29.8670968,15.2148387 C28.7948387,13.0135484 26.9870968,11.2058065 24.7858065,10.1335484 L27.2587097,4.16387097 C31.0264516,5.89612903 34.103871,8.97419355 35.8367742,12.7419355 Z M26.3122581,3.07419355 L23.3464516,10.2348387 C22.2567742,9.85935484 21.1283871,9.67225806 19.9993548,9.67225806 C18.8703226,9.67225806 17.7425806,9.86 16.6522581,10.2348387 L13.6877419,3.07419355 C17.7825806,1.54258065 22.2180645,1.54322581 26.3122581,3.07419355 Z M12.7412903,4.16322581 L15.2141935,10.1329032 C13.0129032,11.2051613 11.2051613,13.0129032 10.1329032,15.2141935 L4.16322581,12.7419355 C5.89612903,8.97419355 8.97354839,5.89612903 12.7412903,4.16322581 Z M3.07419355,13.6870968 L7.14387097,15.3729032 L10.2167742,16.6458065 C10.2167742,16.6458065 10.2167742,16.6458065 10.2167742,16.6458065 L10.2341935,16.6529032 C9.48387097,18.8322581 9.48387097,21.1670968 10.2341935,23.3464516 L10.2167742,23.3535484 C10.2167742,23.3535484 10.2167742,23.3535484 10.2167742,23.3535484 L7.14387097,24.6264516 L3.07419355,26.3122581 C1.54258065,22.2180645 1.54258065,17.7819355 3.07419355,13.6870968 Z"/>
                <rect id="Rectangle" width="1.29032258" height="1.29032258" x="16.7741935" y="35.483871"/>
                <rect id="Rectangle" width="1.29032258" height="1.29032258" x="19.3548387" y="35.483871"/>
                <rect id="Rectangle" width="1.29032258" height="1.29032258" x="21.9354839" y="35.483871"/>
            </g>
        </g>
    </g>
</svg>
