<?xml version="1.0" encoding="UTF-8"?>
<svg width="85px" height="85px" viewBox="0 0 85 85" version="1.1" xmlns="http://www.w3.org/2000/svg" xmlns:xlink="http://www.w3.org/1999/xlink">
    <!-- Generator: Sketch 52.3 (67297) - http://www.bohemiancoding.com/sketch -->
    <title>help_big</title>
    <desc>Created with Sketch.</desc>
    <g id="Assets" stroke="none" stroke-width="1" fill="none" fill-rule="evenodd">
        <g id="Group-11">
            <circle id="Oval-3" stroke="#526476" opacity="0.5" fill-rule="nonzero" cx="42.5" cy="42.5" r="42"></circle>
            <g id="life-buoy-saver-rescue-emergency" transform="translate(13.000000, 13.000000)" fill="#526476">
                <path d="M4.07129032,41.7077419 C4.19516129,41.7077419 4.32096774,41.6835484 4.44193548,41.6332258 L4.46225806,41.6245161 C7.25806452,47.7464516 12.2525806,52.7419355 18.3745161,55.5377419 L18.3667742,55.5570968 C18.1625806,56.0506452 18.3967742,56.6167742 18.8903226,56.8219355 C22.4729032,58.3064516 26.2354839,59.0477419 30,59.0477419 C33.7635484,59.0477419 37.5280645,58.3054839 41.1096774,56.8219355 C41.3467742,56.7232258 41.5345161,56.5354839 41.6332258,56.2983871 C41.7319355,56.0612903 41.7319355,55.7941935 41.6332258,55.5570968 L41.6254839,55.5377419 C47.7474194,52.7419355 52.7419355,47.7464516 55.5377419,41.6254839 L55.5580645,41.6341935 C55.6770968,41.6835484 55.8029032,41.7077419 55.9287097,41.7077419 C56.0545161,41.7077419 56.1803226,41.6835484 56.2993548,41.6341935 C56.5364516,41.5354839 56.7241935,41.3477419 56.8229032,41.1106452 C59.79,33.9464516 59.79,26.0545161 56.8229032,18.8903226 C56.6187097,18.3958065 56.0506452,18.1645161 55.5580645,18.3667742 L55.5377419,18.3754839 C52.7419355,12.2535484 47.7474194,7.25806452 41.6254839,4.46225806 L41.6332258,4.44290323 C41.8374194,3.94935484 41.6032258,3.38322581 41.1096774,3.17806452 C33.9464516,0.210967742 26.0545161,0.21 18.8893548,3.17806452 C18.6522581,3.27677419 18.4645161,3.46451613 18.3658065,3.7016129 C18.2670968,3.93870968 18.2670968,4.20580645 18.3658065,4.44290323 L18.3735484,4.46225806 C12.2525806,7.25806452 7.25806452,12.2535484 4.46225806,18.3745161 L4.44193548,18.3667742 C4.20387097,18.2680645 3.93870968,18.2680645 3.70064516,18.3667742 C3.46354839,18.4654839 3.27580645,18.6532258 3.17709677,18.8903226 C0.21,26.0545161 0.21,33.9464516 3.17709677,41.1106452 C3.33096774,41.4822581 3.69193548,41.7077419 4.07129032,41.7077419 Z M24.4451613,17.5567742 C24.5690323,17.5567742 24.6948387,17.5325806 24.8158065,17.4822581 C28.1593548,16.0974194 31.8416129,16.0974194 35.1851613,17.4822581 C35.6583871,17.6777419 36.2003226,17.4609677 36.4209677,17.0003226 C39.2603226,18.4093548 41.5896774,20.7387097 42.9987097,23.5790323 C42.5380645,23.7996774 42.3203226,24.3377419 42.5177419,24.8148387 C43.9025806,28.1583871 43.9025806,31.8406452 42.5177419,35.1841935 C42.3203226,35.6612903 42.5390323,36.2003226 42.9987097,36.42 C41.5896774,39.2593548 39.2603226,41.5887097 36.4209677,42.9987097 C36.2012903,42.5380645 35.6612903,42.3203226 35.1841935,42.5167742 C31.8406452,43.9016129 28.1583871,43.9016129 24.8148387,42.5167742 C24.3396774,42.3193548 23.7987097,42.5370968 23.5780645,42.9987097 C20.7387097,41.5896774 18.4093548,39.2603226 17.0003226,36.42 C17.4609677,36.1993548 17.6787097,35.6612903 17.4812903,35.1841935 C16.0964516,31.8406452 16.0964516,28.1583871 17.4812903,24.8148387 C17.6787097,24.3377419 17.46,23.7987097 17.0003226,23.5790323 C18.4093548,20.7406452 20.7377419,18.4112903 23.576129,17.0012903 C23.7406452,17.3458065 24.0822581,17.5567742 24.4451613,17.5567742 Z M6.24483871,40.8870968 L15.1993548,37.1777419 C16.8077419,40.4796774 19.5193548,43.1912903 22.8212903,44.7996774 L19.1119355,53.7541935 C13.4603226,51.1558065 8.84419355,46.5387097 6.24483871,40.8870968 Z M20.5316129,55.3887097 L24.9803226,44.6477419 C28.2503226,45.7732258 31.7506452,45.7732258 35.0206452,44.6477419 L39.4693548,55.3887097 C33.326129,57.686129 26.6729032,57.6851613 20.5316129,55.3887097 Z M40.8880645,53.7551613 L37.1787097,44.8006452 C40.4806452,43.1922581 43.1922581,40.4806452 44.8006452,37.1787097 L53.7551613,40.8880645 C51.1558065,46.5387097 46.5396774,51.1558065 40.8880645,53.7551613 Z M55.3887097,39.4693548 L49.2841935,36.9406452 L44.6748387,35.0312903 C44.6748387,35.0312903 44.6748387,35.0312903 44.6748387,35.0312903 L44.6487097,35.0206452 C45.7741935,31.7516129 45.7732258,28.2493548 44.6487097,24.9803226 L44.6748387,24.9696774 C44.6748387,24.9696774 44.6748387,24.9696774 44.6748387,24.9696774 L49.2841935,23.0603226 L55.3887097,20.5316129 C57.686129,26.6729032 57.686129,33.3270968 55.3887097,39.4693548 Z M53.7551613,19.1129032 L44.8006452,22.8222581 C43.1922581,19.5203226 40.4806452,16.8087097 37.1787097,15.2003226 L40.8880645,6.24580645 C46.5396774,8.84419355 51.1558065,13.4612903 53.7551613,19.1129032 Z M39.4683871,4.61129032 L35.0196774,15.3522581 C33.3851613,14.7890323 31.6925806,14.5083871 29.9990323,14.5083871 C28.3054839,14.5083871 26.613871,14.79 24.9783871,15.3522581 L20.5316129,4.61129032 C26.673871,2.31387097 33.3270968,2.31483871 39.4683871,4.61129032 Z M19.1119355,6.24483871 L22.8212903,15.1993548 C19.5193548,16.8077419 16.8077419,19.5193548 15.1993548,22.8212903 L6.24483871,19.1129032 C8.84419355,13.4612903 13.4603226,8.84419355 19.1119355,6.24483871 Z M4.61129032,20.5306452 L10.7158065,23.0593548 L15.3251613,24.9687097 C15.3251613,24.9687097 15.3251613,24.9687097 15.3251613,24.9687097 L15.3512903,24.9793548 C14.2258065,28.2483871 14.2258065,31.7506452 15.3512903,35.0196774 L15.3251613,35.0303226 C15.3251613,35.0303226 15.3251613,35.0303226 15.3251613,35.0303226 L10.7158065,36.9396774 L4.61129032,39.4683871 C2.31387097,33.3270968 2.31387097,26.6729032 4.61129032,20.5306452 Z" id="Shape" fill-rule="nonzero"></path>
                <rect id="Rectangle" x="25.1612903" y="53.2258065" width="1.93548387" height="1.93548387"></rect>
                <rect id="Rectangle" x="29.0322581" y="53.2258065" width="1.93548387" height="1.93548387"></rect>
                <rect id="Rectangle" x="32.9032258" y="53.2258065" width="1.93548387" height="1.93548387"></rect>
            </g>
        </g>
    </g>
</svg>