<?xml version="1.0" encoding="UTF-8"?>
<svg width="85px" height="85px" viewBox="0 0 85 85" version="1.1" xmlns="http://www.w3.org/2000/svg" xmlns:xlink="http://www.w3.org/1999/xlink">
    <!-- Generator: Sketch 52.3 (67297) - http://www.bohemiancoding.com/sketch -->
    <title>list_of_goals_big</title>
    <desc>Created with Sketch.</desc>
    <g id="Assets" stroke="none" stroke-width="1" fill="none" fill-rule="evenodd">
        <g id="Group-11">
            <circle id="Oval-3" stroke="#526476" opacity="0.5" fill-rule="nonzero" cx="42.5" cy="42.5" r="42"></circle>
            <g id="task-planning-timeline-checklist" transform="translate(14.000000, 14.000000)" fill="#526476">
                <path d="M50.4166667,0 L4.58333333,0 C2.05608333,0 0,2.05608333 0,4.58333333 L0,50.4166667 C0,52.9439167 2.05608333,55 4.58333333,55 L50.4166667,55 C52.9439167,55 55,52.9439167 55,50.4166667 L55,4.58333333 C55,2.05608333 52.9439167,0 50.4166667,0 Z M33,35.75 L1.83333333,35.75 L1.83333333,19.25 L33,19.25 L33,35.75 Z M4.58333333,1.83333333 L33,1.83333333 L33,17.4166667 L1.83333333,17.4166667 L1.83333333,4.58333333 C1.83333333,3.06716667 3.06716667,1.83333333 4.58333333,1.83333333 Z M1.83333333,50.4166667 L1.83333333,37.5833333 L33,37.5833333 L33,53.1666667 L4.58333333,53.1666667 C3.06716667,53.1666667 1.83333333,51.9328333 1.83333333,50.4166667 Z M53.1666667,50.4166667 C53.1666667,51.9328333 51.9328333,53.1666667 50.4166667,53.1666667 L34.8333333,53.1666667 L34.8333333,1.83333333 L50.4166667,1.83333333 C51.9328333,1.83333333 53.1666667,3.06716667 53.1666667,4.58333333 L53.1666667,50.4166667 Z" id="Shape" fill-rule="nonzero"></path>
                <path d="M37.5833333,16.5 L47.6666667,16.5 C48.1729277,16.5 48.5833333,16.0895944 48.5833333,15.5833333 L48.5833333,11.9166667 L46.75,11.9166667 L46.75,14.6666667 L38.5,14.6666667 L38.5,6.41666667 L41.25,6.41666667 L41.25,4.58333333 L37.5833333,4.58333333 C37.0770723,4.58333333 36.6666667,4.99373898 36.6666667,5.5 L36.6666667,15.5833333 C36.6666667,16.0895944 37.0770723,16.5 37.5833333,16.5 Z" id="Path"></path>
                <path d="M43.0833333,10.6205 L40.9814167,8.51858333 L39.68525,9.81475 L42.43525,12.56475 C42.6067905,12.7372751 42.8400412,12.8342819 43.0833333,12.8342819 C43.3266255,12.8342819 43.5598761,12.7372751 43.7314167,12.56475 L50.1480833,6.14808333 L48.8519167,4.85191667 L43.0833333,10.6205 Z" id="Path"></path>
                <path d="M46.75,31.1666667 L38.5,31.1666667 L38.5,22.9166667 L41.25,22.9166667 L41.25,21.0833333 L37.5833333,21.0833333 C37.0770723,21.0833333 36.6666667,21.493739 36.6666667,22 L36.6666667,32.0833333 C36.6666667,32.5895944 37.0770723,33 37.5833333,33 L47.6666667,33 C48.1729277,33 48.5833333,32.5895944 48.5833333,32.0833333 L48.5833333,28.4166667 L46.75,28.4166667 L46.75,31.1666667 Z" id="Path"></path>
                <path d="M43.0833333,27.1205 L40.9814167,25.0185833 L39.68525,26.31475 L42.43525,29.06475 C42.6067905,29.2372751 42.8400412,29.3342819 43.0833333,29.3342819 C43.3266255,29.3342819 43.5598761,29.2372751 43.7314167,29.06475 L50.1480833,22.6480833 L48.8519167,21.3519167 L43.0833333,27.1205 Z" id="Path"></path>
                <path d="M47.6666667,38.5 L37.5833333,38.5 C37.0770723,38.5 36.6666667,38.9104056 36.6666667,39.4166667 L36.6666667,49.5 C36.6666667,50.006261 37.0770723,50.4166667 37.5833333,50.4166667 L47.6666667,50.4166667 C48.1729277,50.4166667 48.5833333,50.006261 48.5833333,49.5 L48.5833333,39.4166667 C48.5833333,38.9104056 48.1729277,38.5 47.6666667,38.5 Z M46.75,48.5833333 L38.5,48.5833333 L38.5,40.3333333 L46.75,40.3333333 L46.75,48.5833333 Z" id="Shape" fill-rule="nonzero"></path>
                <polygon id="Path" points="3.66666667 8.25 15.5833333 8.25 15.5833333 10.0833333 3.66666667 10.0833333"></polygon>
                <polygon id="Path" points="10.0833333 26.5833333 22 26.5833333 22 28.4166667 10.0833333 28.4166667"></polygon>
                <polygon id="Path" points="19.25 44 31.1666667 44 31.1666667 45.8333333 19.25 45.8333333"></polygon>
            </g>
        </g>
    </g>
</svg>