<?xml version="1.0" encoding="UTF-8"?>
<svg width="35px" height="35px" viewBox="0 0 35 35" version="1.1" xmlns="http://www.w3.org/2000/svg" xmlns:xlink="http://www.w3.org/1999/xlink">
    <!-- Generator: Sketch 52.3 (67297) - http://www.bohemiancoding.com/sketch -->
    <title>list_of_goals</title>
    <desc>Created with Sketch.</desc>
    <g id="Assets" stroke="none" stroke-width="1" fill="none" fill-rule="evenodd" opacity="0.5">
        <g id="nav" transform="translate(0.000000, -5.000000)" fill="#526476">
            <g id="task-planning-timeline-checklist" transform="translate(0.000000, 5.000000)">
                <path d="M32.0833333,0 L2.91666667,0 C1.30841667,0 0,1.30841667 0,2.91666667 L0,32.0833333 C0,33.6915833 1.30841667,35 2.91666667,35 L32.0833333,35 C33.6915833,35 35,33.6915833 35,32.0833333 L35,2.91666667 C35,1.30841667 33.6915833,0 32.0833333,0 Z M21,22.75 L1.16666667,22.75 L1.16666667,12.25 L21,12.25 L21,22.75 Z M2.91666667,1.16666667 L21,1.16666667 L21,11.0833333 L1.16666667,11.0833333 L1.16666667,2.91666667 C1.16666667,1.95183333 1.95183333,1.16666667 2.91666667,1.16666667 Z M1.16666667,32.0833333 L1.16666667,23.9166667 L21,23.9166667 L21,33.8333333 L2.91666667,33.8333333 C1.95183333,33.8333333 1.16666667,33.0481667 1.16666667,32.0833333 Z M33.8333333,32.0833333 C33.8333333,33.0481667 33.0481667,33.8333333 32.0833333,33.8333333 L22.1666667,33.8333333 L22.1666667,1.16666667 L32.0833333,1.16666667 C33.0481667,1.16666667 33.8333333,1.95183333 33.8333333,2.91666667 L33.8333333,32.0833333 Z" id="Shape" fill-rule="nonzero"></path>
                <path d="M23.9166667,10.5 L30.3333333,10.5 C30.6554994,10.5 30.9166667,10.2388328 30.9166667,9.91666667 L30.9166667,7.58333333 L29.75,7.58333333 L29.75,9.33333333 L24.5,9.33333333 L24.5,4.08333333 L26.25,4.08333333 L26.25,2.91666667 L23.9166667,2.91666667 C23.5945006,2.91666667 23.3333333,3.1778339 23.3333333,3.5 L23.3333333,9.91666667 C23.3333333,10.2388328 23.5945006,10.5 23.9166667,10.5 Z" id="Path"></path>
                <path d="M27.4166667,6.7585 L26.0790833,5.42091667 L25.25425,6.24575 L27.00425,7.99575 C27.1134122,8.10553872 27.2618444,8.16727033 27.4166667,8.16727033 C27.571489,8.16727033 27.7199212,8.10553872 27.8290833,7.99575 L31.9124167,3.91241667 L31.0875833,3.08758333 L27.4166667,6.7585 Z" id="Path"></path>
                <path d="M29.75,19.8333333 L24.5,19.8333333 L24.5,14.5833333 L26.25,14.5833333 L26.25,13.4166667 L23.9166667,13.4166667 C23.5945006,13.4166667 23.3333333,13.6778339 23.3333333,14 L23.3333333,20.4166667 C23.3333333,20.7388328 23.5945006,21 23.9166667,21 L30.3333333,21 C30.6554994,21 30.9166667,20.7388328 30.9166667,20.4166667 L30.9166667,18.0833333 L29.75,18.0833333 L29.75,19.8333333 Z" id="Path"></path>
                <path d="M27.4166667,17.2585 L26.0790833,15.9209167 L25.25425,16.74575 L27.00425,18.49575 C27.1134122,18.6055387 27.2618444,18.6672703 27.4166667,18.6672703 C27.571489,18.6672703 27.7199212,18.6055387 27.8290833,18.49575 L31.9124167,14.4124167 L31.0875833,13.5875833 L27.4166667,17.2585 Z" id="Path"></path>
                <path d="M30.3333333,24.5 L23.9166667,24.5 C23.5945006,24.5 23.3333333,24.7611672 23.3333333,25.0833333 L23.3333333,31.5 C23.3333333,31.8221661 23.5945006,32.0833333 23.9166667,32.0833333 L30.3333333,32.0833333 C30.6554994,32.0833333 30.9166667,31.8221661 30.9166667,31.5 L30.9166667,25.0833333 C30.9166667,24.7611672 30.6554994,24.5 30.3333333,24.5 Z M29.75,30.9166667 L24.5,30.9166667 L24.5,25.6666667 L29.75,25.6666667 L29.75,30.9166667 Z" id="Shape" fill-rule="nonzero"></path>
                <polygon id="Path" points="2.33333333 5.25 9.91666667 5.25 9.91666667 6.41666667 2.33333333 6.41666667"></polygon>
                <polygon id="Path" points="6.41666667 16.9166667 14 16.9166667 14 18.0833333 6.41666667 18.0833333"></polygon>
                <polygon id="Path" points="12.25 28 19.8333333 28 19.8333333 29.1666667 12.25 29.1666667"></polygon>
            </g>
        </g>
    </g>
</svg>