<?xml version="1.0" encoding="UTF-8"?>
<svg xmlns="http://www.w3.org/2000/svg" xmlns:xlink="http://www.w3.org/1999/xlink" width="41px" height="41px" version="1.1" viewBox="0 0 41 41">
<!--Generator: Sketch 52.3 (67297) - http://www.bohemiancoding.com/sketch-->
    <title>
        my_goal
    </title>
    <desc>
        Created with Sketch.
    </desc>
    <g id="Assets" fill="none" fill-rule="evenodd" stroke="none" stroke-width="1">
        <g id="nav" fill="#118AB2" transform="translate(-67.000000, -1.000000)">
            <g id="Group-4" transform="translate(67.000000, 1.000000)">
                <g id="Group-11">
                    <g id="hit-target-arrow-aim-objective-goal-success" transform="translate(0.200000, 0.100000)">
                        <polygon id="Path" points="22 29.3333333 23.3333333 29.3333333 23.3333333 30.6666667 22 30.6666667"/>
                        <path id="Shape" fill-rule="nonzero" d="M30,0 C25.2886667,0 21.3326667,6.27466667 20.272,15.3333333 L15.3333333,15.3333333 C14.9651435,15.3333333 14.6666667,15.6318102 14.6666667,16 L14.6666667,18 L11.0233333,18 L8.55466667,14.2966667 C8.43090113,14.1113778 8.2228225,14.0000857 8,14 L0.666666667,14 C0.420965526,14.0001269 0.195250241,14.1353896 0.079279042,14.3519992 C-0.0366921565,14.5686089 -0.0241184827,14.8314497 0.112,15.036 L2.66666667,18.8686667 L2.66666667,21.132 L0.112,24.964 C-0.0241184827,25.1685503 -0.0366921565,25.4313911 0.079279042,25.6480008 C0.195250241,25.8646104 0.420965526,25.9998731 0.666666667,26 L8,26 C8.22266667,26 8.43066667,25.8886667 8.55466667,25.7033333 L11.0233333,22 L12,22 L12,23.3333333 C12,23.5106667 12.07,23.68 12.1953333,23.8046667 L14,25.6093333 L14,39.3333333 C14,39.7015232 14.2984768,40 14.6666667,40 L25.3333333,40 C25.7015232,40 26,39.7015232 26,39.3333333 L26,38.3733333 C27.2473333,39.4413333 28.608,40 30,40 C35.6073333,40 40,31.2146667 40,20 C40,8.78533333 35.6073333,0 30,0 Z M10.6666667,20.6666667 L4,20.6666667 L4,19.3333333 L14.6666667,19.3333333 L14.6666667,20.6666667 L10.6666667,20.6666667 Z M7.64333333,15.3333333 L9.42133333,18 L3.69,18 L1.912,15.3333333 L7.64333333,15.3333333 Z M7.64333333,24.6666667 L1.912,24.6666667 L3.69,22 L9.42133333,22 L7.64333333,24.6666667 Z M13.3333333,23.0573333 L13.3333333,22 L15.3333333,22 C15.7015232,22 16,21.7015232 16,21.3333333 L16,16.6666667 L24.6666667,16.6666667 L24.6666667,26.6666667 L15.3333333,26.6666667 L15.3333333,25.3333333 C15.3335898,25.1564783 15.2632823,24.9868283 15.138,24.862 L13.3333333,23.0573333 Z M25.608,15.3926667 C26.354,9.28666667 28.3946667,6 30,6 C32.2073333,6 34.6666667,11.7493333 34.6666667,20 C34.6666667,28.2506667 32.2073333,34 30,34 C28.456,34 26.8513333,31.204 26,27.034 L26,22 L27.3746667,22 C27.4946667,25.044 27.9893333,30.6666667 30,30.6666667 C32.592,30.6666667 32.6666667,21.092 32.6666667,20 C32.6666667,18.908 32.592,9.33333333 30,9.33333333 C27.9893333,9.33333333 27.4946667,14.956 27.3746667,18 L26,18 L26,16 C25.9986733,15.9202572 25.9828607,15.8414198 25.9533333,15.7673333 C25.9453333,15.7453333 25.9346667,15.7266667 25.9246667,15.706 C25.8991587,15.6549503 25.8671115,15.6074398 25.8293333,15.5646667 C25.8153333,15.5486667 25.8026667,15.5313333 25.7873333,15.5166667 C25.734923,15.4655803 25.6743013,15.4236634 25.608,15.3926667 Z M15.3333333,28 L24.6666667,28 L24.6666667,32 L15.3333333,32 L15.3333333,28 Z M29.3333333,18 L28.7086667,18 C28.8846667,13.6993333 29.5746667,11.3046667 30.0006667,10.7453333 C30.506,11.3986667 31.3333333,14.52 31.3333333,20 C31.3333333,25.48 30.506,28.6013333 30.0006667,29.2546667 C29.5746667,28.6953333 28.8846667,26.3006667 28.7086667,22 L29.3333333,22 C29.7015232,22 30,21.7015232 30,21.3333333 L30,18.6666667 C30,18.2984768 29.7015232,18 29.3333333,18 Z M28.0193333,19.3333333 L28.6666667,19.3333333 L28.6666667,20.6666667 L26,20.6666667 L26,19.3333333 L28.0193333,19.3333333 Z M24.6666667,38.6666667 L15.3333333,38.6666667 L15.3333333,33.3333333 L24.6666667,33.3333333 L24.6666667,38.6666667 Z M30,38.6666667 C28.6213333,38.6666667 27.2413333,37.918 26,36.4973333 L26,31.5753333 C27.0633333,33.9793333 28.46,35.3333333 30,35.3333333 C32.9086667,35.3333333 36,29.9593333 36,20 C36,10.0406667 32.9086667,4.66666667 30,4.66666667 C27.268,4.66666667 25.0506667,8.836 24.2773333,15.3333333 L21.6126667,15.3333333 C22.604,7.17666667 26.076,1.33333333 30,1.33333333 C34.698,1.33333333 38.6666667,9.88133333 38.6666667,20 C38.6666667,30.1186667 34.698,38.6666667 30,38.6666667 Z"/>
                        <polygon id="Path" points="11.3333333 8 19.3333333 8 19.3333333 9.33333333 11.3333333 9.33333333"/>
                        <polygon id="Path" points="8.66666667 8 10 8 10 9.33333333 8.66666667 9.33333333"/>
                        <polygon id="Path" points="6 8 7.33333333 8 7.33333333 9.33333333 6 9.33333333"/>
                        <polygon id="Path" points="8.66666667 10.6666667 16.6666667 10.6666667 16.6666667 12 8.66666667 12"/>
                        <polygon id="Path" points="6 10.6666667 7.33333333 10.6666667 7.33333333 12 6 12"/>
                        <polygon id="Path" points="3.33333333 10.6666667 4.66666667 10.6666667 4.66666667 12 3.33333333 12"/>
                    </g>
                </g>
            </g>
        </g>
    </g>
</svg>
