<?xml version="1.0" encoding="UTF-8"?>
<svg width="85px" height="85px" viewBox="0 0 85 85" version="1.1" xmlns="http://www.w3.org/2000/svg" xmlns:xlink="http://www.w3.org/1999/xlink">
    <!-- Generator: Sketch 52.3 (67297) - http://www.bohemiancoding.com/sketch -->
    <title>my_goal_big</title>
    <desc>Created with Sketch.</desc>
    <g id="Assets" stroke="none" stroke-width="1" fill="none" fill-rule="evenodd">
        <g id="Group-11">
            <circle id="Oval-3" stroke="#526476" opacity="0.5" fill-rule="nonzero" cx="42.5" cy="42.5" r="42"></circle>
            <g id="hit-target-arrow-aim-objective-goal-success" transform="translate(9.000000, 11.000000)" fill="#526476">
                <polygon id="Path" points="34.1 45.4666667 36.1666667 45.4666667 36.1666667 47.5333333 34.1 47.5333333"></polygon>
                <path d="M46.5,0 C39.1974333,0 33.0656333,9.72573333 31.4216,23.7666667 L23.7666667,23.7666667 C23.1959724,23.7666667 22.7333333,24.2293058 22.7333333,24.8 L22.7333333,27.9 L17.0861667,27.9 L13.2597333,22.1598333 C13.0678967,21.8726356 12.7453749,21.7001329 12.4,21.7 L1.03333333,21.7 C0.652496566,21.7001967 0.302637873,21.9098538 0.122882515,22.2455988 C-0.0568728426,22.5813438 -0.0373836482,22.988747 0.1736,23.3058 L4.13333333,29.2464333 L4.13333333,32.7546 L0.1736,38.6942 C-0.0373836482,39.011253 -0.0568728426,39.4186562 0.122882515,39.7544012 C0.302637873,40.0901462 0.652496566,40.2998033 1.03333333,40.3 L12.4,40.3 C12.7451333,40.3 13.0675333,40.1274333 13.2597333,39.8401667 L17.0861667,34.1 L18.6,34.1 L18.6,36.1666667 C18.6,36.4415333 18.7085,36.704 18.9027667,36.8972333 L21.7,39.6944667 L21.7,60.9666667 C21.7,61.5373609 22.1626391,62 22.7333333,62 L39.2666667,62 C39.8373609,62 40.3,61.5373609 40.3,60.9666667 L40.3,59.4786667 C42.2333667,61.1340667 44.3424,62 46.5,62 C55.1913667,62 62,48.3827333 62,31 C62,13.6172667 55.1913667,0 46.5,0 Z M16.5333333,32.0333333 L6.2,32.0333333 L6.2,29.9666667 L22.7333333,29.9666667 L22.7333333,32.0333333 L16.5333333,32.0333333 Z M11.8471667,23.7666667 L14.6030667,27.9 L5.7195,27.9 L2.9636,23.7666667 L11.8471667,23.7666667 Z M11.8471667,38.2333333 L2.9636,38.2333333 L5.7195,34.1 L14.6030667,34.1 L11.8471667,38.2333333 Z M20.6666667,35.7388667 L20.6666667,34.1 L23.7666667,34.1 C24.3373609,34.1 24.8,33.6373609 24.8,33.0666667 L24.8,25.8333333 L38.2333333,25.8333333 L38.2333333,41.3333333 L23.7666667,41.3333333 L23.7666667,39.2666667 C23.7670642,38.9925414 23.6580875,38.7295839 23.4639,38.5361 L20.6666667,35.7388667 Z M39.6924,23.8586333 C40.8487,14.3943333 44.0117333,9.3 46.5,9.3 C49.9213667,9.3 53.7333333,18.2114667 53.7333333,31 C53.7333333,43.7885333 49.9213667,52.7 46.5,52.7 C44.1068,52.7 41.6195667,48.3662 40.3,41.9027 L40.3,34.1 L42.4307333,34.1 C42.6167333,38.8182 43.3834667,47.5333333 46.5,47.5333333 C50.5176,47.5333333 50.6333333,32.6926 50.6333333,31 C50.6333333,29.3074 50.5176,14.4666667 46.5,14.4666667 C43.3834667,14.4666667 42.6167333,23.1818 42.4307333,27.9 L40.3,27.9 L40.3,24.8 C40.2979437,24.6763986 40.2734341,24.5542008 40.2276667,24.4393667 C40.2152667,24.4052667 40.1987333,24.3763333 40.1832333,24.3443 C40.143696,24.265173 40.0940228,24.1915316 40.0354667,24.1252333 C40.0137667,24.1004333 39.9941333,24.0735667 39.9703667,24.0508333 C39.8891307,23.9716494 39.795167,23.9066782 39.6924,23.8586333 Z M23.7666667,43.4 L38.2333333,43.4 L38.2333333,49.6 L23.7666667,49.6 L23.7666667,43.4 Z M45.4666667,27.9 L44.4984333,27.9 C44.7712333,21.2339667 45.8407333,17.5222333 46.5010333,16.6552667 C47.2843,17.6679333 48.5666667,22.506 48.5666667,31 C48.5666667,39.494 47.2843,44.3320667 46.5010333,45.3447333 C45.8407333,44.4777667 44.7712333,40.7660333 44.4984333,34.1 L45.4666667,34.1 C46.0373609,34.1 46.5,33.6373609 46.5,33.0666667 L46.5,28.9333333 C46.5,28.3626391 46.0373609,27.9 45.4666667,27.9 Z M43.4299667,29.9666667 L44.4333333,29.9666667 L44.4333333,32.0333333 L40.3,32.0333333 L40.3,29.9666667 L43.4299667,29.9666667 Z M38.2333333,59.9333333 L23.7666667,59.9333333 L23.7666667,51.6666667 L38.2333333,51.6666667 L38.2333333,59.9333333 Z M46.5,59.9333333 C44.3630667,59.9333333 42.2240667,58.7729 40.3,56.5708667 L40.3,48.9417667 C41.9481667,52.6679667 44.113,54.7666667 46.5,54.7666667 C51.0084333,54.7666667 55.8,46.4369667 55.8,31 C55.8,15.5630333 51.0084333,7.23333333 46.5,7.23333333 C42.2654,7.23333333 38.8285333,13.6958 37.6298667,23.7666667 L33.4996333,23.7666667 C35.0362,11.1238333 40.4178,2.06666667 46.5,2.06666667 C53.7819,2.06666667 59.9333333,15.3160667 59.9333333,31 C59.9333333,46.6839333 53.7819,59.9333333 46.5,59.9333333 Z" id="Shape" fill-rule="nonzero"></path>
                <polygon id="Path" points="17.5666667 12.4 29.9666667 12.4 29.9666667 14.4666667 17.5666667 14.4666667"></polygon>
                <polygon id="Path" points="13.4333333 12.4 15.5 12.4 15.5 14.4666667 13.4333333 14.4666667"></polygon>
                <polygon id="Path" points="9.3 12.4 11.3666667 12.4 11.3666667 14.4666667 9.3 14.4666667"></polygon>
                <polygon id="Path" points="13.4333333 16.5333333 25.8333333 16.5333333 25.8333333 18.6 13.4333333 18.6"></polygon>
                <polygon id="Path" points="9.3 16.5333333 11.3666667 16.5333333 11.3666667 18.6 9.3 18.6"></polygon>
                <polygon id="Path" points="5.16666667 16.5333333 7.23333333 16.5333333 7.23333333 18.6 5.16666667 18.6"></polygon>
            </g>
        </g>
    </g>
</svg>