<?xml version="1.0" encoding="UTF-8"?>
<svg width="85px" height="85px" viewBox="0 0 85 85" version="1.1" xmlns="http://www.w3.org/2000/svg" xmlns:xlink="http://www.w3.org/1999/xlink">
    <!-- Generator: Sketch 52.5 (67469) - http://www.bohemiancoding.com/sketch -->
    <title>Group 11</title>
    <desc>Created with Sketch.</desc>
    <g id="Assets" stroke="none" stroke-width="1" fill="none" fill-rule="evenodd">
        <g id="Group-11">
            <circle id="Oval-3" stroke="#526476" opacity="0.5" fill-rule="nonzero" cx="42.5" cy="42.5" r="42"></circle>
            <g id="door-lock-security-save-privacy" transform="translate(15.000000, 15.000000)" fill="#526476">
                <path d="M55.125,28.875 L53.375,28.875 L53.375,27.125 C53.375,19.887875 47.487125,14 40.25,14 C38.714375,14 37.246125,14.279125 35.875,14.765625 L35.875,4.375 C35.875,1.962625 33.912375,0 31.5,0 L4.375,0 C1.962625,0 0,1.962625 0,4.375 L0,51.625 C0,54.037375 1.962625,56 4.375,56 L55.125,56 C55.6082492,56 56,55.6082492 56,55.125 L56,29.75 C56,29.2667508 55.6082492,28.875 55.125,28.875 Z M51.625,27.125 L51.625,28.875 L49,28.875 L49,27.125 C49,22.30025 45.07475,18.375 40.25,18.375 C35.42525,18.375 31.5,22.30025 31.5,27.125 L31.5,28.875 L28.875,28.875 L28.875,27.125 C28.875,24.966375 29.490125,22.953875 30.538375,21.23275 C30.7125,20.946625 30.898,20.671 31.093125,20.405 C33.166,17.588375 36.49275,15.75 40.25,15.75 C46.522,15.75 51.625,20.853 51.625,27.125 Z M47.25,28.875 L33.25,28.875 L33.25,27.125 C33.25,23.265375 36.390375,20.125 40.25,20.125 C44.109625,20.125 47.25,23.265375 47.25,27.125 L47.25,28.875 Z M31.5,44.625 L26.25,44.625 L26.25,41.125 L31.5,41.125 L31.5,44.625 Z M24.5,40.25 L24.5,48.125 L21,48.125 L21,35.875 L24.5,35.875 L24.5,40.25 Z M26.25,49 L26.25,46.375 L31.5,46.375 L31.5,49.875 L26.25,49.875 L26.25,49 Z M31.5,39.375 L26.25,39.375 L26.25,35.875 L31.5,35.875 L31.5,39.375 Z M8.75,28.875 L8.75,27.125 L27.125,27.125 L27.125,28.875 L8.75,28.875 Z M29.225875,20.02875 C29.204875,20.062 29.180375,20.09175 29.159375,20.125 L21,20.125 L21,7.875 L29.75,7.875 L29.75,19.266625 C29.69925,19.334875 29.654625,19.408375 29.60475,19.4775 C29.4735787,19.6578481 29.3472421,19.8416635 29.225875,20.02875 Z M1.75,51.625 L1.75,4.375 C1.75,2.92775 2.92775,1.75 4.375,1.75 L31.5,1.75 C32.94725,1.75 34.125,2.92775 34.125,4.375 L34.125,15.526 C33.1780038,16.0314015 32.2964459,16.6508428 31.5,17.3705 L31.5,7 C31.5,6.51675084 31.1082492,6.125 30.625,6.125 L20.125,6.125 C19.6417508,6.125 19.25,6.51675084 19.25,7 L19.25,21 C19.25,21.4832492 19.6417508,21.875 20.125,21.875 L28.228375,21.875 C27.741686,22.9903262 27.4141499,24.1685137 27.255375,25.375 L7.875,25.375 C7.39175084,25.375 7,25.7667508 7,26.25 L7,29.75 C7,30.2332492 7.39175084,30.625 7.875,30.625 L24.5,30.625 L24.5,34.125 L20.125,34.125 C19.6417508,34.125 19.25,34.5167508 19.25,35 L19.25,49 C19.25,49.4832492 19.6417508,49.875 20.125,49.875 L24.5,49.875 L24.5,54.25 L4.375,54.25 C2.92775,54.25 1.75,53.07225 1.75,51.625 Z M54.25,54.25 L26.25,54.25 L26.25,51.625 L32.375,51.625 C32.8582492,51.625 33.25,51.2332492 33.25,50.75 L33.25,35 C33.25,34.5167508 32.8582492,34.125 32.375,34.125 L26.25,34.125 L26.25,30.625 L54.25,30.625 L54.25,54.25 Z" id="Shape" fill-rule="nonzero"></path>
                <path d="M38.5,44.606625 L38.5,49 C38.5,49.4832492 38.8917508,49.875 39.375,49.875 L42.875,49.875 C43.3582492,49.875 43.75,49.4832492 43.75,49 L43.75,44.606625 C44.8459567,43.7838253 45.4935542,42.4954302 45.5,41.125 C45.5,38.712625 43.537375,36.75 41.125,36.75 C38.712625,36.75 36.75,38.712625 36.75,41.125 C36.75,42.492625 37.40975,43.785 38.5,44.606625 Z M41.125,38.5 C42.57225,38.5 43.75,39.67775 43.75,41.125 C43.75,42.0595 43.25825,42.903875 42.434875,43.383375 C42.165375,43.540875 42,43.82875 42,44.139375 L42,48.125 L40.25,48.125 L40.25,44.139375 C40.2499108,43.8279408 40.0842933,43.5400264 39.815125,43.383375 C38.99175,42.903875 38.5,42.0595 38.5,41.125 C38.5,39.67775 39.67775,38.5 41.125,38.5 Z" id="Shape" fill-rule="nonzero"></path>
                <polygon id="Path" points="3.5 25.375 5.25 25.375 5.25 30.625 3.5 30.625"></polygon>
                <polygon id="Path" points="48.125 5.25 49.875 5.25 49.875 7 48.125 7"></polygon>
                <polygon id="Path" points="48.125 8.75 49.875 8.75 49.875 10.5 48.125 10.5"></polygon>
                <polygon id="Path" points="48.125 12.25 49.875 12.25 49.875 14 48.125 14"></polygon>
                <polygon id="Path" points="44.625 5.25 46.375 5.25 46.375 7 44.625 7"></polygon>
                <polygon id="Path" points="41.125 5.25 42.875 5.25 42.875 7 41.125 7"></polygon>
                <polygon id="Path" points="37.625 5.25 39.375 5.25 39.375 7 37.625 7"></polygon>
                <path d="M5.25,21.875 L15.75,21.875 C16.2332492,21.875 16.625,21.4832492 16.625,21 L16.625,7 C16.625,6.51675084 16.2332492,6.125 15.75,6.125 L5.25,6.125 C4.76675084,6.125 4.375,6.51675084 4.375,7 L4.375,21 C4.375,21.4832492 4.76675084,21.875 5.25,21.875 Z M6.125,7.875 L14.875,7.875 L14.875,20.125 L6.125,20.125 L6.125,7.875 Z" id="Shape" fill-rule="nonzero"></path>
                <path d="M15.75,34.125 L5.25,34.125 C4.76675084,34.125 4.375,34.5167508 4.375,35 L4.375,49 C4.375,49.4832492 4.76675084,49.875 5.25,49.875 L15.75,49.875 C16.2332492,49.875 16.625,49.4832492 16.625,49 L16.625,35 C16.625,34.5167508 16.2332492,34.125 15.75,34.125 Z M14.875,48.125 L6.125,48.125 L6.125,35.875 L14.875,35.875 L14.875,48.125 Z" id="Shape" fill-rule="nonzero"></path>
            </g>
        </g>
    </g>
</svg>