<?xml version="1.0" encoding="UTF-8"?>
<svg width="85px" height="85px" viewBox="0 0 85 85" version="1.1" xmlns="http://www.w3.org/2000/svg" xmlns:xlink="http://www.w3.org/1999/xlink">
    <!-- Generator: Sketch 52.3 (67297) - http://www.bohemiancoding.com/sketch -->
    <title>tips_big</title>
    <desc>Created with Sketch.</desc>
    <g id="Assets" stroke="none" stroke-width="1" fill="none" fill-rule="evenodd">
        <g id="Group-11">
            <circle id="Oval-3" stroke="#526476" opacity="0.5" fill-rule="nonzero" cx="42.5" cy="42.5" r="42"></circle>
            <g id="idea-innovation-flash-startup-learning" transform="translate(13.000000, 5.000000)" fill="#526476">
                <path d="M30,5 C16.215,5 5,16.215 5,30 C4.99252529,40.4314873 11.4738709,49.7671178 21.25,53.40625 L21.25,57.73 C19.7561207,58.2565711 18.7550769,59.6660408 18.75,61.25 C18.75,62.21375 19.12625,63.085 19.725,63.75 C19.1002913,64.4330115 18.7526547,65.3243875 18.75,66.25 C18.75,68.3175 20.4325,70 22.5,70 L23.2325,70 L27.86625,74.63375 C28.1003816,74.868537 28.4184243,75.0003425 28.75,75 L31.25,75 C31.58125,75 31.9,74.86875 32.13375,74.63375 L36.7675,70 L37.5,70 C39.5675,70 41.25,68.3175 41.25,66.25 C41.2468652,65.3244786 40.8992937,64.4332695 40.275,63.75 C40.875,63.085 41.25,62.21375 41.25,61.25 C41.2449231,59.6660408 40.2438793,58.2565711 38.75,57.73 L38.75,53.40625 C48.5261291,49.7671178 55.0074747,40.4314873 55,30 C55,16.215 43.785,5 30,5 Z M22.5,60 L37.5,60 C38.18875,60 38.75,60.56125 38.75,61.25 C38.75,61.93875 38.18875,62.5 37.5,62.5 L22.5,62.5 C21.81125,62.5 21.25,61.93875 21.25,61.25 C21.25,60.56125 21.81125,60 22.5,60 Z M30.7325,72.5 L29.2675,72.5 L26.7675,70 L33.2325,70 L30.7325,72.5 Z M37.5,67.5 L22.5,67.5 C21.81125,67.5 21.25,66.93875 21.25,66.25 C21.25,65.56125 21.81125,65 22.5,65 L37.5,65 C38.18875,65 38.75,65.56125 38.75,66.25 C38.75,66.93875 38.18875,67.5 37.5,67.5 Z M37.105,51.33625 C36.5943216,51.5063399 36.2498704,51.9842407 36.25,52.5225 L36.25,57.5 L23.75,57.5 L23.75,52.5225 C23.7501296,51.9842407 23.4056784,51.5063399 22.895,51.33625 C13.6992361,48.2881323 7.49371998,39.6877787 7.5,30 C7.5,17.59375 17.59375,7.5 30,7.5 C42.40625,7.5 52.5,17.59375 52.5,30 C52.50628,39.6877787 46.3007639,48.2881323 37.105,51.33625 Z" id="Shape" fill-rule="nonzero"></path>
                <polygon id="Path" points="28.75 0 31.25 0 31.25 2.5 28.75 2.5"></polygon>
                <polygon id="Path" points="57.5 28.75 60 28.75 60 31.25 57.5 31.25"></polygon>
                <polygon id="Path" points="0 28.75 2.5 28.75 2.5 31.25 0 31.25"></polygon>
                <polygon id="Path" points="48.5625 9.6725 50.32875 7.90375 52.0975 9.6725 50.32875 11.44"></polygon>
                <polygon id="Path" points="7.9025 50.33 9.67 48.5625 11.4375 50.33 9.67 52.0975"></polygon>
                <polygon id="Path" points="48.56125 50.32875 50.32875 48.56 52.09625 50.32875 50.32875 52.09625"></polygon>
                <polygon id="Path" points="7.9025 9.67 9.67 7.90125 11.4375 9.67 9.67 11.4375"></polygon>
                <path d="M41.25,28.75 L33.75,28.75 L33.75,16.25 C33.7474773,15.7456828 33.4427307,15.2920728 32.9767905,15.0990911 C32.5108503,14.9061094 31.9746177,15.0114053 31.61625,15.36625 L17.86625,29.11625 C17.5088651,29.4737428 17.4019726,30.0112958 17.5954025,30.4783182 C17.7888324,30.9453406 18.2445051,31.2498921 18.75,31.25 L26.25,31.25 L26.25,43.75 C26.2525227,44.2543172 26.5572693,44.7079272 27.0232095,44.9009089 C27.4891497,45.0938906 28.0253823,44.9885947 28.38375,44.63375 L42.13375,30.88375 C42.4911349,30.5262572 42.5980274,29.9887042 42.4045975,29.5216818 C42.2111676,29.0546594 41.7554949,28.7501079 41.25,28.75 Z M28.75,40.7325 L28.75,30 C28.75,29.3096441 28.1903559,28.75 27.5,28.75 L21.7675,28.75 L31.25,19.2675 L31.25,30 C31.25,30.6903559 31.8096441,31.25 32.5,31.25 L38.2325,31.25 L28.75,40.7325 Z" id="Shape" fill-rule="nonzero"></path>
            </g>
        </g>
    </g>
</svg>