<?xml version="1.0" encoding="UTF-8"?>
<svg width="35px" height="44px" viewBox="0 0 35 44" version="1.1" xmlns="http://www.w3.org/2000/svg" xmlns:xlink="http://www.w3.org/1999/xlink">
    <!-- Generator: Sketch 52.3 (67297) - http://www.bohemiancoding.com/sketch -->
    <title>tips</title>
    <desc>Created with Sketch.</desc>
    <g id="Assets" stroke="none" stroke-width="1" fill="none" fill-rule="evenodd" opacity="0.5">
        <g id="nav" transform="translate(-308.000000, 0.000000)" fill="#526476">
            <g id="idea-innovation-flash-startup-learning" transform="translate(308.000000, 0.000000)">
                <path d="M17.5,2.91666667 C9.45875,2.91666667 2.91666667,9.45875 2.91666667,17.5 C2.91230642,23.5850343 6.69309137,29.0308187 12.3958333,31.1536458 L12.3958333,33.6758333 C11.5244037,33.9829998 10.9404615,34.8051904 10.9375,35.7291667 C10.9375,36.2913542 11.1569792,36.7995833 11.50625,37.1875 C11.1418366,37.5859234 10.9390486,38.1058927 10.9375,38.6458333 C10.9375,39.851875 11.9189583,40.8333333 13.125,40.8333333 L13.5522917,40.8333333 L16.2553125,43.5363542 C16.3918893,43.6733132 16.5774142,43.7501998 16.7708333,43.75 L18.2291667,43.75 C18.4223958,43.75 18.6083333,43.6734375 18.7446875,43.5363542 L21.4477083,40.8333333 L21.875,40.8333333 C23.0810417,40.8333333 24.0625,39.851875 24.0625,38.6458333 C24.0606714,38.1059458 23.8579213,37.5860739 23.49375,37.1875 C23.84375,36.7995833 24.0625,36.2913542 24.0625,35.7291667 C24.0595385,34.8051904 23.4755963,33.9829998 22.6041667,33.6758333 L22.6041667,31.1536458 C28.3069086,29.0308187 32.0876936,23.5850343 32.0833333,17.5 C32.0833333,9.45875 25.54125,2.91666667 17.5,2.91666667 Z M13.125,35 L21.875,35 C22.2767708,35 22.6041667,35.3273958 22.6041667,35.7291667 C22.6041667,36.1309375 22.2767708,36.4583333 21.875,36.4583333 L13.125,36.4583333 C12.7232292,36.4583333 12.3958333,36.1309375 12.3958333,35.7291667 C12.3958333,35.3273958 12.7232292,35 13.125,35 Z M17.9272917,42.2916667 L17.0727083,42.2916667 L15.614375,40.8333333 L19.385625,40.8333333 L17.9272917,42.2916667 Z M21.875,39.375 L13.125,39.375 C12.7232292,39.375 12.3958333,39.0476042 12.3958333,38.6458333 C12.3958333,38.2440625 12.7232292,37.9166667 13.125,37.9166667 L21.875,37.9166667 C22.2767708,37.9166667 22.6041667,38.2440625 22.6041667,38.6458333 C22.6041667,39.0476042 22.2767708,39.375 21.875,39.375 Z M21.6445833,29.9461458 C21.3466876,30.045365 21.1457577,30.3241404 21.1458333,30.638125 L21.1458333,33.5416667 L13.8541667,33.5416667 L13.8541667,30.638125 C13.8542423,30.3241404 13.6533124,30.045365 13.3554167,29.9461458 C7.99122104,28.1680771 4.37133666,23.1512043 4.375,17.5 C4.375,10.2630208 10.2630208,4.375 17.5,4.375 C24.7369792,4.375 30.625,10.2630208 30.625,17.5 C30.6286633,23.1512043 27.008779,28.1680771 21.6445833,29.9461458 Z" id="Shape" fill-rule="nonzero"></path>
                <polygon id="Path" points="16.7708333 0 18.2291667 0 18.2291667 1.45833333 16.7708333 1.45833333"></polygon>
                <polygon id="Path" points="33.5416667 16.7708333 35 16.7708333 35 18.2291667 33.5416667 18.2291667"></polygon>
                <polygon id="Path" points="0 16.7708333 1.45833333 16.7708333 1.45833333 18.2291667 0 18.2291667"></polygon>
                <polygon id="Path" points="28.328125 5.64229167 29.3584375 4.61052083 30.3902083 5.64229167 29.3584375 6.67333333"></polygon>
                <polygon id="Path" points="4.60979167 29.3591667 5.64083333 28.328125 6.671875 29.3591667 5.64083333 30.3902083"></polygon>
                <polygon id="Path" points="28.3273958 29.3584375 29.3584375 28.3266667 30.3894792 29.3584375 29.3584375 30.3894792"></polygon>
                <polygon id="Path" points="4.60979167 5.64083333 5.64083333 4.6090625 6.671875 5.64083333 5.64083333 6.671875"></polygon>
                <path d="M24.0625,16.7708333 L19.6875,16.7708333 L19.6875,9.47916667 C19.6860284,9.18498164 19.5082596,8.92037578 19.2364611,8.80780314 C18.9646627,8.6952305 18.6518603,8.7566531 18.4428125,8.96364583 L10.4219792,16.9844792 C10.2135046,17.1930166 10.1511507,17.5065892 10.2639848,17.7790189 C10.3768189,18.0514487 10.642628,18.2291037 10.9375,18.2291667 L15.3125,18.2291667 L15.3125,25.5208333 C15.3139716,25.8150184 15.4917404,26.0796242 15.7635389,26.1921969 C16.0353373,26.3047695 16.3481397,26.2433469 16.5571875,26.0363542 L24.5780208,18.0155208 C24.7864954,17.8069834 24.8488493,17.4934108 24.7360152,17.2209811 C24.6231811,16.9485513 24.357372,16.7708963 24.0625,16.7708333 Z M16.7708333,23.760625 L16.7708333,17.5 C16.7708333,17.0972924 16.4443743,16.7708333 16.0416667,16.7708333 L12.6977083,16.7708333 L18.2291667,11.239375 L18.2291667,17.5 C18.2291667,17.9027076 18.5556257,18.2291667 18.9583333,18.2291667 L22.3022917,18.2291667 L16.7708333,23.760625 Z" id="Shape" fill-rule="nonzero"></path>
            </g>
        </g>
    </g>
</svg>