<?xml version="1.0" encoding="UTF-8"?>
<svg width="165px" height="163px" viewBox="0 0 165 163" version="1.1" xmlns="http://www.w3.org/2000/svg" xmlns:xlink="http://www.w3.org/1999/xlink">
    <!-- Generator: Sketch 52.3 (67297) - http://www.bohemiancoding.com/sketch -->
    <title>welldone</title>
    <desc>Created with Sketch.</desc>
    <g id="Assets" stroke="none" stroke-width="1" fill="none" fill-rule="evenodd">
        <g id="welldone" fill="#526476">
            <g id="Group-2">
                <g id="cash-back-reward-like-thumb">
                    <path d="M2.72253582,163 L119.791576,163 C124.29465,163 127.959184,159.314047 127.959184,154.784651 L127.959184,121.923253 C127.959184,117.393857 124.29465,113.707904 119.791576,113.707904 L108.901433,113.707904 L108.901433,100.015655 C108.901433,93.9746346 104.017204,89.0618557 98.0112896,89.0618557 C92.0053756,89.0618557 87.1211463,93.9746346 87.1211463,100.015655 L87.1211463,113.707904 L2.72253582,113.707904 C1.21892081,113.707904 0,114.93395 0,116.446354 L0,160.26155 C0,161.773954 1.21892081,163 2.72253582,163 Z M89.8436822,119.184803 C91.3472972,119.184803 92.566218,117.958758 92.566218,116.446354 L92.566218,100.015655 C92.566218,96.9951447 95.0083326,94.5387553 98.0112896,94.5387553 C101.014247,94.5387553 103.456361,96.9951447 103.456361,100.015655 L103.456361,116.446354 C103.456361,117.958758 104.675282,119.184803 106.178897,119.184803 L119.791576,119.184803 C121.294416,119.184803 122.514112,120.414367 122.514112,121.923253 L122.514112,154.784651 C122.514112,156.293536 121.294416,157.5231 119.791576,157.5231 L78.9535389,157.5231 L78.9535389,119.184803 L89.8436822,119.184803 Z M73.5084672,157.5231 L65.3408597,157.5231 L65.3408597,119.184803 L73.5084672,119.184803 L73.5084672,157.5231 Z M5.44507165,119.184803 L59.8957881,119.184803 L59.8957881,157.5231 L5.44507165,157.5231 L5.44507165,119.184803 Z" id="Shape" fill-rule="nonzero"></path>
                    <polygon id="Path" points="50.5102041 146.195876 55.5612245 146.195876 55.5612245 151.237113 50.5102041 151.237113"></polygon>
                    <path d="M162.233965,98.904271 C154.608007,98.904271 148.40379,92.7120714 148.40379,85.1008837 C148.40379,83.5762036 147.165394,82.3402062 145.637755,82.3402062 C144.110116,82.3402062 142.87172,83.5762036 142.87172,85.1008837 C142.87172,92.7120714 136.667504,98.904271 129.041545,98.904271 C127.513906,98.904271 126.27551,100.140268 126.27551,101.664948 C126.27551,103.189629 127.513906,104.425626 129.041545,104.425626 C136.667504,104.425626 142.87172,110.617825 142.87172,118.229013 C142.87172,119.753693 144.110116,120.989691 145.637755,120.989691 C147.165394,120.989691 148.40379,119.753693 148.40379,118.229013 C148.40379,110.617825 154.608007,104.425626 162.233965,104.425626 C163.761604,104.425626 165,103.189629 165,101.664948 C165,100.140268 163.761604,98.904271 162.233965,98.904271 Z M145.637755,108.282292 C143.999211,105.571625 141.723497,103.300319 139.007569,101.664948 C141.723497,100.029578 143.999211,97.7582721 145.637755,95.0476046 C147.276299,97.7582721 149.552013,100.029578 152.267941,101.664948 C149.552634,103.30111 147.277092,105.572244 145.637755,108.282292 Z" id="Shape" fill-rule="nonzero"></path>
                    <path d="M97.6530612,27.7268041 C97.6530612,12.4382443 85.1906786,0 69.872449,0 C54.5542194,0 42.0918367,12.4382443 42.0918367,27.7268041 C42.0918367,43.0153639 54.5542194,55.4536082 69.872449,55.4536082 C85.1906786,55.4536082 97.6530612,43.0153639 97.6530612,27.7268041 Z M69.872449,49.9082474 C57.6184209,49.9082474 47.6479592,39.9570974 47.6479592,27.7268041 C47.6479592,15.4965108 57.6184209,5.54536082 69.872449,5.54536082 C82.126477,5.54536082 92.0969388,15.4965108 92.0969388,27.7268041 C92.0969388,39.9570974 82.126477,49.9082474 69.872449,49.9082474 Z" id="Shape" fill-rule="nonzero"></path>
                    <path d="M69.0306122,10.0824742 C59.7451531,10.0824742 52.1938776,17.6191237 52.1938776,26.8865979 C52.1938776,36.1540722 59.7451531,43.6907216 69.0306122,43.6907216 C78.3160714,43.6907216 85.8673469,36.1540722 85.8673469,26.8865979 C85.8673469,17.6191237 78.3160714,10.0824742 69.0306122,10.0824742 Z M69.0306122,38.0893471 C62.8403061,38.0893471 57.8061224,33.0649141 57.8061224,26.8865979 C57.8061224,20.7082818 62.8403061,15.6838488 69.0306122,15.6838488 C75.2209184,15.6838488 80.255102,20.7082818 80.255102,26.8865979 C80.255102,33.0649141 75.2209184,38.0893471 69.0306122,38.0893471 Z" id="Shape" fill-rule="nonzero"></path>
                    <path d="M22.7295918,99.1443299 C33.4037208,99.1443299 42.0918367,90.4758027 42.0918367,79.8195876 C42.0918367,69.1633726 33.4037208,60.4948454 22.7295918,60.4948454 C12.0554628,60.4948454 3.36734694,69.1633726 3.36734694,79.8195876 C3.36734694,90.4758027 12.0554628,99.1443299 22.7295918,99.1443299 Z M22.7295918,66.0162003 C30.3555503,66.0162003 36.5597668,72.2083999 36.5597668,79.8195876 C36.5597668,87.4307754 30.3555503,93.622975 22.7295918,93.622975 C15.1036334,93.622975 8.89941691,87.4307754 8.89941691,79.8195876 C8.89941691,72.2083999 15.1036334,66.0162003 22.7295918,66.0162003 Z" id="Shape" fill-rule="nonzero"></path>
                    <path d="M137.219388,16.8041237 C121.901158,16.8041237 109.438776,29.242368 109.438776,44.5309278 C109.438776,59.8194876 121.901158,72.257732 137.219388,72.257732 C152.537617,72.257732 165,59.8194876 165,44.5309278 C165,29.242368 152.537617,16.8041237 137.219388,16.8041237 Z M137.219388,66.7123711 C124.96536,66.7123711 114.994898,56.7612211 114.994898,44.5309278 C114.994898,32.3006345 124.96536,22.3494845 137.219388,22.3494845 C149.473416,22.3494845 159.443878,32.3006345 159.443878,44.5309278 C159.443878,56.7612211 149.473416,66.7123711 137.219388,66.7123711 Z" id="Shape" fill-rule="nonzero"></path>
                    <path d="M138.061224,26.8865979 C128.775765,26.8865979 121.22449,34.4232474 121.22449,43.6907216 C121.22449,52.9581959 128.775765,60.4948454 138.061224,60.4948454 C147.346684,60.4948454 154.897959,52.9581959 154.897959,43.6907216 C154.897959,34.4232474 147.346684,26.8865979 138.061224,26.8865979 Z M138.061224,54.8934708 C131.870918,54.8934708 126.836735,49.8690378 126.836735,43.6907216 C126.836735,37.5124055 131.870918,32.4879725 138.061224,32.4879725 C144.251531,32.4879725 149.285714,37.5124055 149.285714,43.6907216 C149.285714,49.8690378 144.251531,54.8934708 138.061224,54.8934708 Z" id="Shape" fill-rule="nonzero"></path>
                    <path d="M65.4761905,107.546392 L70.7142857,107.546392 C70.7142857,94.5758488 60.1411905,84.0206186 47.1428571,84.0206186 L47.1428571,89.2485682 C57.2497619,89.2485682 65.4761905,97.456449 65.4761905,107.546392 Z" id="Path"></path>
                    <path d="M101.020408,70.7640321 L101.020408,65.5360825 C88.0220748,65.5360825 77.4489796,76.0913127 77.4489796,89.0618557 L82.6870748,89.0618557 C82.6870748,78.9719129 90.9135034,70.7640321 101.020408,70.7640321 Z" id="Path"></path>
                    <path d="M61.8367347,82.3402062 L67.3469388,82.3402062 C67.3469388,65.6628772 53.7505102,52.0927835 37.0408163,52.0927835 L37.0408163,57.5923149 C50.7143878,57.5923149 61.8367347,68.6958688 61.8367347,82.3402062 Z" id="Path"></path>
                    <polygon id="Path" points="8.41836735 18.4845361 13.4693878 18.4845361 13.4693878 23.5257732 8.41836735 23.5257732"></polygon>
                    <polygon id="Path" points="104.387755 5.04123711 109.438776 5.04123711 109.438776 10.0824742 104.387755 10.0824742"></polygon>
                    <polygon id="Path" points="21.8877551 45.371134 26.9387755 45.371134 26.9387755 50.4123711 21.8877551 50.4123711"></polygon>
                    <polygon id="Path" points="146.479592 136.113402 151.530612 136.113402 151.530612 141.154639 146.479592 141.154639"></polygon>
                    <polygon id="Path" points="116.173469 77.2989691 121.22449 77.2989691 121.22449 82.3402062 116.173469 82.3402062"></polygon>
                    <polygon id="Path" points="80.8163265 58.814433 85.8673469 58.814433 85.8673469 63.8556701 80.8163265 63.8556701"></polygon>
                    <polygon id="Path" points="99.3367347 47.0515464 104.387755 47.0515464 104.387755 52.0927835 99.3367347 52.0927835"></polygon>
                    <polygon id="Path" points="43.7755102 97.4639175 48.8265306 97.4639175 48.8265306 102.505155 43.7755102 102.505155"></polygon>
                </g>
            </g>
        </g>
    </g>
</svg>